<svg width="40" height="40" viewBox="0 0 40 40" fill="none" xmlns="http://www.w3.org/2000/svg">
<path d="M23.5611 17.7895C23.5611 17.1686 23.397 16.6762 23.2685 16.3907C22.9046 15.5486 22.2266 14.8706 21.3774 14.4995C21.3774 14.4995 21.3702 14.4995 21.3631 14.4924C19.7931 13.793 18.1017 14.2569 17.1383 15.463C16.5888 16.1052 16.2605 16.9474 16.2605 17.868C16.2605 18.3746 16.3675 18.8528 16.5531 19.2881C16.5531 19.3024 16.5674 19.3238 16.5745 19.3452C16.7458 19.7663 16.9741 20.0517 17.1383 20.223C17.4023 20.5299 17.7163 20.7868 18.066 20.9937C18.7583 21.4362 19.529 21.5932 20.364 21.4647C20.9063 21.4005 21.413 21.215 21.8555 20.9366C22.4692 20.5727 22.9188 20.0589 23.2114 19.3952C23.4398 18.9099 23.5611 18.3675 23.5611 17.7895Z" fill="#FEDC5D"/>
<path fill-rule="evenodd" clip-rule="evenodd" d="M17.0475 15.3871C18.0447 14.1402 19.7928 13.6633 21.411 14.3841L21.4309 14.3929L21.4322 14.3942C22.3046 14.7778 23.0013 15.4755 23.3762 16.3424C23.5097 16.6392 23.6788 17.1479 23.6788 17.7887C23.6788 18.3829 23.5542 18.942 23.3186 19.4432C23.0166 20.1276 22.5513 20.6598 21.9168 21.0364C21.4609 21.3229 20.9388 21.5142 20.3798 21.5807C19.519 21.7126 18.7205 21.5505 18.0043 21.0933C17.646 20.881 17.3232 20.6171 17.051 20.3014C16.8794 20.1219 16.6428 19.8249 16.4654 19.3888L16.4625 19.3818L16.4627 19.3817C16.4628 19.3817 16.4627 19.3817 16.4627 19.3815C16.4626 19.3813 16.4625 19.381 16.4623 19.3805L16.4606 19.3765C16.4592 19.3734 16.4586 19.372 16.4577 19.3703C16.4569 19.3686 16.456 19.3665 16.4539 19.3619C16.4513 19.3562 16.4472 19.347 16.4437 19.3365C16.4423 19.3324 16.4406 19.3269 16.4391 19.3202C16.2512 18.8748 16.1427 18.3855 16.1427 17.8672C16.1427 16.9189 16.4807 16.0503 17.0475 15.3871ZM21.3031 14.5939C19.7853 13.9239 18.1577 14.3747 17.2302 15.5357L17.2278 15.5388L17.2277 15.5387C16.6963 16.1599 16.3782 16.9749 16.3782 17.8672C16.3782 18.3571 16.4817 18.8195 16.6614 19.2412L16.6708 19.2633V19.27L16.6713 19.2711L16.6756 19.2805C16.6782 19.2863 16.6816 19.2941 16.6847 19.3029C16.849 19.7055 17.0671 19.9778 17.2233 20.1408L17.2276 20.1453L17.2275 20.1454C17.4826 20.4419 17.7865 20.6907 18.126 20.8916L18.1294 20.8937L18.1294 20.8937C18.7967 21.3202 19.5383 21.4719 20.346 21.3476L20.3501 21.347L20.3501 21.347C20.8746 21.2849 21.3646 21.1055 21.7928 20.8362L21.7954 20.8346L21.7954 20.8346C22.3874 20.4835 22.8206 19.9888 23.1036 19.3469L23.1048 19.3442L23.1048 19.3443C23.3256 18.8752 23.4433 18.3501 23.4433 17.7887C23.4433 17.1883 23.2845 16.7125 23.1611 16.4383L23.1604 16.4367L23.1604 16.4366C22.8098 15.6254 22.1576 14.9711 21.3399 14.6109C21.3385 14.6105 21.3371 14.6101 21.3356 14.6096C21.3252 14.6061 21.3141 14.601 21.3031 14.5939Z" fill="#FEDC5D"/>
<path fill-rule="evenodd" clip-rule="evenodd" d="M20.0571 16.3544C19.2269 16.3544 18.5584 17.0229 18.5584 17.8531C18.5584 18.6833 19.2269 19.3518 20.0571 19.3518C20.5895 19.3518 21.0604 19.0733 21.327 18.6517C21.3945 18.5451 21.5355 18.5133 21.6421 18.5807C21.7487 18.6481 21.7805 18.7892 21.7131 18.8958C21.366 19.4446 20.7522 19.8085 20.0571 19.8085C18.9747 19.8085 18.1017 18.9355 18.1017 17.8531C18.1017 16.7707 18.9747 15.8977 20.0571 15.8977C20.7207 15.8977 21.3022 16.2299 21.6563 16.729C21.7293 16.8318 21.7051 16.9744 21.6023 17.0474C21.4994 17.1204 21.3569 17.0962 21.2839 16.9933C21.01 16.6075 20.5638 16.3544 20.0571 16.3544Z" fill="#FF931E"/>
<path fill-rule="evenodd" clip-rule="evenodd" d="M17.0312 17.3886C17.0312 17.2625 17.1334 17.1603 17.2596 17.1603H20.5566C20.6827 17.1603 20.785 17.2625 20.785 17.3886C20.785 17.5148 20.6827 17.617 20.5566 17.617H17.2596C17.1334 17.617 17.0312 17.5148 17.0312 17.3886Z" fill="#FF931E"/>
<path fill-rule="evenodd" clip-rule="evenodd" d="M17.0312 18.317C17.0312 18.1909 17.1334 18.0886 17.2596 18.0886H20.5566C20.6827 18.0886 20.785 18.1909 20.785 18.317C20.785 18.4431 20.6827 18.5454 20.5566 18.5454H17.2596C17.1334 18.5454 17.0312 18.4431 17.0312 18.317Z" fill="#FF931E"/>
<path d="M9.80194 25.1612C8.85992 25.1826 7.91077 25.1898 6.97589 25.1612V25.0185L7.02585 22.3423C7.03298 22.2281 6.99016 22.2424 7.12576 22.2424L9.80194 22.2923H9.8519V22.3423L9.80194 25.0185V25.1612ZM9.80194 24.8829L9.75198 22.3423L9.80194 22.3923L7.12576 22.4422L7.22567 22.3423L7.27562 25.0185L7.12576 24.8686C8.03209 24.8472 8.90988 24.8543 9.80194 24.8829Z" fill="white"/>
<path d="M14.4692 26.2669C13.5201 26.2883 12.5709 26.2955 11.6289 26.2669V26.1242L11.6789 23.4337C11.686 23.3196 11.6432 23.3338 11.7788 23.3338L14.4692 23.3838H14.5192V23.4337L14.4692 26.1242V26.2669ZM14.4692 25.9886L14.4193 23.4337L14.4692 23.4837L11.7788 23.5336L11.8787 23.4337L11.9286 26.1242L11.7788 25.9743C12.6851 25.9529 13.57 25.9601 14.4621 25.9886H14.4692Z" fill="white"/>
<path d="M19.0651 26.2669C18.116 26.2883 17.1668 26.2955 16.2248 26.2669V26.1242L16.2747 23.4337C16.2819 23.3196 16.2391 23.3338 16.3747 23.3338L19.0651 23.3838H19.1151V23.4337L19.0651 26.1242V26.2669ZM19.0651 25.9886L19.0152 23.4337L19.0651 23.4837L16.3747 23.5336L16.4746 23.4337L16.5245 26.1242L16.3747 25.9743C17.281 25.9529 18.1659 25.9601 19.058 25.9886H19.0651Z" fill="white"/>
<path d="M23.6539 28.1434H16.3818V34.0025H23.6539V28.1434Z" fill="#6288F6"/>
<path d="M23.661 26.2669C22.7118 26.2883 21.7627 26.2955 20.8207 26.2669V26.1242L20.8706 23.4337C20.8778 23.3196 20.835 23.3338 20.9705 23.3338L23.661 23.3838H23.711V23.4337L23.661 26.1242V26.2669ZM23.661 25.9886L23.611 23.4337L23.661 23.4837L20.9705 23.5336L21.0705 23.4337L21.1204 26.1242L20.9705 25.9743C21.8769 25.9529 22.7618 25.9601 23.6539 25.9886H23.661Z" fill="white"/>
<path d="M28.2569 26.2669C27.3077 26.2883 26.3586 26.2955 25.4166 26.2669V26.1242L25.4665 23.4337C25.4737 23.3196 25.4308 23.3338 25.5664 23.3338L28.2569 23.3838H28.3068V23.4337L28.2569 26.1242V26.2669ZM28.2569 25.9886L28.2069 23.4337L28.2569 23.4837L25.5664 23.5336L25.6663 23.4337L25.7163 26.1242L25.5664 25.9743C26.4728 25.9529 27.3577 25.9601 28.2497 25.9886H28.2569Z" fill="white"/>
<path d="M32.6958 25.1612C31.7538 25.1826 30.8046 25.1898 29.8698 25.1612V25.0185L29.9197 22.3423C29.9268 22.2281 29.884 22.2424 30.0196 22.2424L32.6958 22.2923H32.7458V22.3423L32.6958 25.0185V25.1612ZM32.6958 24.8829L32.6458 22.3423L32.6958 22.3923L30.0196 22.4422L30.1195 22.3423L30.1695 25.0185L30.0196 24.8686C30.926 24.8472 31.8037 24.8543 32.6958 24.8829Z" fill="white"/>
<path d="M9.80194 29.8502C8.85992 29.8716 7.91077 29.8787 6.97589 29.8502V29.7074L7.02585 27.0313C7.03298 26.9171 6.99016 26.9314 7.12576 26.9314L9.80194 26.9813H9.8519V27.0313L9.80194 29.7074V29.8502ZM9.80194 29.5719L9.75198 27.0313L9.80194 27.0812L7.12576 27.1312L7.22567 27.0313L7.27562 29.7074L7.12576 29.5576C8.03209 29.5362 8.90988 29.5433 9.80194 29.5719Z" fill="white"/>
<path d="M14.4692 30.9698C13.5201 30.9912 12.5709 30.9983 11.6289 30.9698V30.8271L11.6789 28.1366C11.686 28.0224 11.6432 28.0367 11.7788 28.0367L14.4692 28.0867H14.5192V28.1366L14.4692 30.8271V30.9698ZM14.4692 30.6915L14.4193 28.1366L14.4692 28.1866L11.7788 28.2365L11.8787 28.1366L11.9286 30.8271L11.7788 30.6772C12.6851 30.6558 13.57 30.6629 14.4621 30.6915H14.4692Z" fill="white"/>
<path d="M28.2569 30.9698C27.3077 30.9912 26.3586 30.9983 25.4166 30.9698V30.8271L25.4665 28.1366C25.4737 28.0224 25.4308 28.0367 25.5664 28.0367L28.2569 28.0867H28.3068V28.1366L28.2569 30.8271V30.9698ZM28.2569 30.6915L28.2069 28.1366L28.2569 28.1866L25.5664 28.2365L25.6663 28.1366L25.7163 30.8271L25.5664 30.6772C26.4728 30.6558 27.3577 30.6629 28.2497 30.6915H28.2569Z" fill="white"/>
<path d="M32.6958 29.8502C31.7538 29.8716 30.8046 29.8787 29.8698 29.8502V29.7074L29.9197 27.0313C29.9268 26.9171 29.884 26.9314 30.0196 26.9314L32.6958 26.9813H32.7458V27.0313L32.6958 29.7074V29.8502ZM32.6958 29.5719L32.6458 27.0313L32.6958 27.0812L30.0196 27.1312L30.1195 27.0313L30.1695 29.7074L30.0196 29.5576C30.926 29.5362 31.8037 29.5433 32.6958 29.5719Z" fill="white"/>
<path d="M26.7154 14.663C26.7154 14.663 26.7725 19.1019 26.7226 18.9805L35.8858 22.5488L35.9358 22.5702V22.6273L36 34.2241V34.3739C35.9572 34.4167 4.47101 34.5238 4.38537 34.5523H4.05709V34.2241L4 22.6344V22.3775L4.24264 22.2704L12.6851 18.5952L12.4139 19.0091L12.3782 12.4863H13.3488L13.3131 19.0091V19.3088L13.0419 19.423L4.54951 22.9984L4.79215 22.6344L4.72078 34.2241L4.39251 33.8958C4.32828 33.9671 36.5138 33.8601 35.7145 34.2241L35.7788 22.6344C36.1427 22.9199 26.6298 18.9663 26.7083 19.0376C26.6655 19.0376 26.7297 14.6986 26.7154 14.6701V14.663Z" fill="white"/>
<path d="M12.2498 12.7855L19.7859 5.37073L27.3291 12.7855H12.2498Z" fill="#FF4F40"/>
<path fill-rule="evenodd" clip-rule="evenodd" d="M19.7858 5L27.9745 13.0492H11.6049L19.7858 5ZM19.786 5.74069L12.8946 12.5211H26.6839L19.786 5.74069Z" fill="#FF4F40"/>
</svg>
