<svg width="40" height="40" viewBox="0 0 40 40" fill="none" xmlns="http://www.w3.org/2000/svg">
<path d="M34.8772 7.04114C32.3456 6.38782 30.304 5.9795 28.589 5.81617C24.5058 5.16284 20.0142 4.99951 17.3192 5.57117C9.6427 7.28614 5.23278 10.5527 5.23278 10.5527C3.10948 14.4727 4.98778 34.0723 4.98778 34.0723C15.6043 36.604 24.0974 35.0523 24.0974 35.0523C29.8957 34.889 35.7756 26.9675 35.7756 26.9675L34.8772 7.04114Z" fill="#FFF4DE"/>
<path fill-rule="evenodd" clip-rule="evenodd" d="M28.617 5.59615C30.3472 5.76151 32.3995 6.17279 34.9325 6.82647L35.0908 6.86732L36 27.0355L35.9531 27.0987L35.7756 26.9669C35.9531 27.0987 35.9532 27.0986 35.9531 27.0987L35.9518 27.1004L35.9483 27.1051L35.9351 27.1227C35.9235 27.1381 35.9062 27.1609 35.8836 27.1904C35.8384 27.2493 35.7717 27.3355 35.6848 27.445C35.5111 27.664 35.2569 27.9764 34.9338 28.3515C34.2879 29.1014 33.3655 30.1035 32.2598 31.1115C30.0644 33.1128 27.0997 35.181 24.1202 35.2723L24.1107 35.2739C24.0938 35.2769 24.0687 35.2812 24.0357 35.2867C23.9696 35.2976 23.872 35.3132 23.7442 35.3322C23.4886 35.37 23.1127 35.4211 22.6287 35.4744C21.6608 35.5809 20.2608 35.6963 18.5284 35.7322C15.0639 35.8039 10.2671 35.558 4.9365 34.2868L4.78277 34.2502L4.76769 34.0928L4.98779 34.0718C4.76769 34.0928 4.76771 34.093 4.76769 34.0928L4.76232 34.0361L4.74703 33.8709C4.73376 33.726 4.71459 33.5132 4.69095 33.2411C4.64367 32.6967 4.57853 31.915 4.507 30.9647C4.36395 29.0642 4.19532 26.4889 4.0931 23.7903C3.99092 21.0926 3.95494 18.2677 4.07792 15.8695C4.13941 14.6705 4.24081 13.5743 4.39454 12.6519C4.54748 11.7342 4.75509 10.9698 5.03837 10.4469L5.06174 10.4037L5.10118 10.3745L5.23279 10.5522C5.10118 10.3745 5.10109 10.3746 5.10118 10.3745L5.10239 10.3736L5.10521 10.3715L5.1157 10.3639C5.12483 10.3572 5.13824 10.3476 5.1559 10.335C5.19121 10.3098 5.2435 10.2731 5.3125 10.2259C5.45048 10.1316 5.65529 9.99563 5.92468 9.82742C6.46344 9.49102 7.26064 9.02562 8.29843 8.50673C10.3739 7.469 13.4125 6.21682 17.271 5.35481L17.2734 5.35429C20.0063 4.77458 24.526 4.9422 28.617 5.59615ZM5.4041 10.7011C5.1673 11.1589 4.97677 11.8484 4.83074 12.7246C4.68078 13.6243 4.58057 14.7024 4.51956 15.8922C4.39755 18.2714 4.43303 21.0814 4.535 23.7736C4.63695 26.4649 4.80518 29.0345 4.94797 30.9315C5.01935 31.8799 5.08436 32.6599 5.13151 33.2028C5.15508 33.4742 5.17419 33.6863 5.1874 33.8305L5.1932 33.8932C10.4174 35.1219 15.1164 35.3605 18.5192 35.29C20.2371 35.2545 21.6239 35.1401 22.5803 35.0348C23.0585 34.9822 23.429 34.9318 23.6794 34.8947C23.8046 34.8762 23.8997 34.861 23.9633 34.8504C23.9861 34.8466 24.0049 34.8434 24.0195 34.8409C24.0252 34.8399 24.0303 34.8391 24.0348 34.8383L24.0524 34.8352L24.0566 34.8344L24.0575 34.8343L24.0743 34.8312L24.0912 34.8307C26.9044 34.7515 29.7718 32.7812 31.9619 30.7847C33.051 29.7918 33.9609 28.8034 34.5987 28.0629C34.9175 27.6928 35.1679 27.385 35.3384 27.1702C35.4236 27.0627 35.4888 26.9785 35.5326 26.9214C35.5393 26.9127 35.5454 26.9046 35.5511 26.8972L34.6637 7.21398C32.2103 6.58571 30.2308 6.19405 28.5681 6.0357L28.5611 6.03503L28.5541 6.03392C24.4811 5.38224 20.0219 5.22366 17.3663 5.78664C13.5489 6.63959 10.5446 7.87805 8.4962 8.90226C7.47194 9.41439 6.68688 9.87284 6.15889 10.2025C5.8949 10.3674 5.69521 10.5 5.56204 10.591C5.49546 10.6365 5.44551 10.6716 5.41247 10.6952C5.40955 10.6972 5.40676 10.6992 5.4041 10.7011Z" fill="#FFF4DE"/>
<path d="M17.9725 19.3722L14.8693 16.5956L12.501 18.8006V12.0223C12.501 11.7773 12.6643 11.859 12.9093 11.859H17.9725V19.3722Z" fill="#FF931E"/>
<path fill-rule="evenodd" clip-rule="evenodd" d="M12.8491 12.206V18.0011L14.8646 16.1245L17.6245 18.5939V12.2072H12.9093C12.8887 12.2072 12.8685 12.2067 12.8491 12.206ZM12.7886 11.5047C12.8345 11.5083 12.8702 11.5111 12.9093 11.5111H18.3206V20.1508L14.874 17.0669L12.153 19.6003V12.0225C12.153 11.9332 12.1658 11.8052 12.2471 11.6913C12.3401 11.5611 12.4713 11.5176 12.5641 11.5044C12.6414 11.4933 12.7205 11.4994 12.7647 11.5028C12.7661 11.503 12.7675 11.5031 12.7689 11.5032C12.7757 11.5037 12.7823 11.5042 12.7886 11.5047Z" fill="#FF931E"/>
<path d="M11.9294 22.6394H13.726L17.2376 22.7211C17.2376 22.7211 18.6259 22.7211 18.5442 23.7827C18.5442 24.681 17.8909 24.7627 17.4009 24.8444C16.9109 24.926 11.4394 24.7627 11.4394 24.7627C11.4394 24.7627 10.0511 24.7627 10.0511 23.7011C10.1327 22.8027 11.4394 22.6394 11.9294 22.6394Z" fill="#101C1E"/>
<path fill-rule="evenodd" clip-rule="evenodd" d="M10.194 23.7066C10.1954 23.9343 10.2694 24.0979 10.3757 24.2199C10.4855 24.3459 10.6362 24.4343 10.7962 24.4955C10.9558 24.5565 11.1174 24.5876 11.2405 24.6033C11.3017 24.6111 11.3524 24.615 11.3875 24.6169C11.405 24.6179 11.4185 24.6183 11.4274 24.6186L11.4371 24.6188L11.4392 24.6188L11.4436 24.6188L11.6795 24.6257C11.83 24.63 12.0456 24.6361 12.3058 24.6431C12.8262 24.6571 13.5252 24.675 14.2394 24.6903C14.9538 24.7056 15.6828 24.7183 16.2636 24.7221C16.5541 24.724 16.8068 24.7237 17.0016 24.7204C17.2014 24.717 17.3288 24.7105 17.3774 24.7024C17.3885 24.7005 17.3995 24.6987 17.4105 24.6969C17.6539 24.6565 17.8932 24.6168 18.0796 24.4982C18.2574 24.385 18.4013 24.1889 18.4013 23.7817V23.7707C18.4191 23.5394 18.3577 23.3765 18.2626 23.2569C18.1648 23.1338 18.0236 23.0466 17.8691 22.9857C17.7153 22.9251 17.5568 22.8941 17.435 22.8784C17.3745 22.8706 17.3241 22.8667 17.2892 22.8648C17.2718 22.8639 17.2584 22.8634 17.2495 22.8632L17.2398 22.863L17.2377 22.863L17.2376 22.7201L17.2409 22.5772L17.2396 22.5772L17.2433 22.5772L17.2568 22.5775C17.2682 22.5777 17.2845 22.5783 17.3049 22.5794C17.3456 22.5817 17.4031 22.5861 17.4715 22.5949C17.6074 22.6124 17.7909 22.6477 17.9739 22.7198C18.1563 22.7917 18.3468 22.9035 18.4864 23.079C18.6278 23.2569 18.7088 23.4903 18.6871 23.7871C18.6871 23.7853 18.6871 23.7835 18.6871 23.7817H18.5442L18.6867 23.7927C18.6869 23.7908 18.687 23.789 18.6871 23.7871M17.2396 22.5772L17.2383 22.5771C17.2382 22.5771 17.2376 22.5771 17.2376 22.7201C17.2376 22.863 17.2378 22.863 17.2377 22.863L17.2343 22.863L13.7243 22.7813H13.726V22.6384L13.7226 22.7813L13.7243 22.7813H11.9293C11.695 22.7813 11.2648 22.821 10.8884 22.9657C10.5112 23.1108 10.2301 23.3427 10.194 23.7066" fill="#101C1E"/>
<path d="M22.3008 29.2543C22.3825 29.7443 22.3825 32.1942 22.2191 32.8475C22.2191 32.8475 18.1359 33.3375 15.4409 32.8475C15.4409 32.8475 15.2776 31.1326 15.3593 29.1726C19.1975 29.2543 20.6675 29.2543 22.3008 29.2543Z" fill="#FF931E"/>
<path fill-rule="evenodd" clip-rule="evenodd" d="M15.0257 28.8169L15.3667 28.8241C19.2013 28.9057 20.669 28.9057 22.2999 28.9057H22.5957L22.6441 29.1966C22.691 29.4779 22.71 30.2453 22.6999 30.9939C22.6947 31.3756 22.6818 31.7648 22.6596 32.1018C22.6379 32.4308 22.606 32.7346 22.5568 32.9315L22.4987 33.1641L22.2606 33.1926L22.2191 32.8471C22.2606 33.1926 22.2607 33.1926 22.2606 33.1926L22.2571 33.1931L22.2477 33.1942L22.2119 33.1983C22.1805 33.2018 22.1346 33.207 22.0753 33.2133C21.9567 33.2259 21.7848 33.2433 21.5703 33.2626C21.1414 33.3013 20.5415 33.3476 19.8563 33.3785C18.4928 33.44 16.7661 33.4418 15.3787 33.1895L15.1194 33.1424L15.0944 32.8801L15.0939 32.8742L15.0925 32.8586L15.0873 32.799C15.0829 32.747 15.0767 32.671 15.0696 32.5739C15.0553 32.3797 15.0373 32.1009 15.0218 31.7604C14.9908 31.08 14.9701 30.1507 15.0115 29.1576L15.0257 28.8169ZM15.7657 32.5485C17.0281 32.7423 18.5621 32.7401 19.825 32.6831C20.4975 32.6528 21.0868 32.6072 21.5078 32.5693C21.6738 32.5544 21.8135 32.5406 21.9217 32.5294C21.938 32.4021 21.9527 32.2421 21.965 32.056C21.9862 31.7346 21.9988 31.3582 22.0038 30.9845C22.0112 30.4407 22.0021 29.9272 21.9837 29.6018C20.5137 29.6015 19.0424 29.5968 15.6952 29.5273C15.6716 30.3652 15.6904 31.1407 15.7172 31.7288C15.7323 32.062 15.75 32.3344 15.7638 32.523C15.7644 32.5317 15.7651 32.5402 15.7657 32.5485Z" fill="#FF931E"/>
<path d="M17.1559 11.3696C17.0743 11.3696 12.746 11.533 12.746 11.4513C12.746 11.2063 22.9542 5.48975 25.4041 5.48975C25.9758 5.48975 29.079 5.89807 29.079 5.89807L18.6259 10.4713L17.1559 11.3696Z" fill="#FF931E"/>
<path fill-rule="evenodd" clip-rule="evenodd" d="M13.8669 11.1171C14.1867 11.1111 14.5476 11.102 14.9106 11.0919C15.6329 11.0716 16.3724 11.0464 16.7971 11.032C16.9042 11.0283 16.9913 11.0254 17.053 11.0233L18.4646 10.1607L27.7844 6.08326C27.6641 6.06845 27.54 6.0533 27.4143 6.03816C26.5541 5.93452 25.6632 5.8365 25.4041 5.8365C25.1517 5.8365 24.765 5.9128 24.2584 6.06744C23.7595 6.21975 23.1711 6.43947 22.526 6.70699C21.2363 7.24182 19.7397 7.95952 18.3146 8.68732C16.8903 9.41473 15.5426 10.1496 14.5523 10.7171C14.2981 10.8628 14.0681 10.9971 13.8669 11.1171ZM29.1244 5.55168L30.3635 5.71472L18.7871 10.7794L17.2538 11.7164H17.1559C17.1569 11.7164 17.1549 11.7164 17.1489 11.7166C17.1413 11.7169 17.127 11.7173 17.1042 11.718L16.9548 11.723C16.9235 11.7241 16.8891 11.7253 16.8519 11.7266C16.7393 11.7304 16.601 11.7352 16.4441 11.7404C16.0266 11.7545 15.4771 11.7724 14.9301 11.7877C14.3835 11.803 13.8372 11.8159 13.4268 11.8197C13.2223 11.8217 13.0476 11.8214 12.9223 11.8179C12.861 11.8161 12.8039 11.8134 12.7587 11.8087C12.7386 11.8067 12.706 11.8028 12.6725 11.7942C12.6586 11.7907 12.6212 11.7808 12.5799 11.7578C12.5614 11.7475 12.3979 11.6568 12.3979 11.45C12.3979 11.3763 12.4206 11.3206 12.4341 11.2926C12.4488 11.2619 12.4652 11.2384 12.4765 11.2237C12.4987 11.1945 12.5223 11.1713 12.5385 11.1563C12.5725 11.1247 12.6139 11.0925 12.6552 11.0621C12.7403 10.9997 12.8591 10.9207 13.0032 10.8294C13.2933 10.6458 13.7065 10.3995 14.2062 10.1132C15.2065 9.53992 16.564 8.79973 17.998 8.06737C19.4312 7.33541 20.9459 6.60865 22.2593 6.06397C22.9158 5.79173 23.5269 5.56294 24.0552 5.40166C24.5758 5.24272 25.044 5.14038 25.4041 5.14038C25.7166 5.14038 26.6632 5.24652 27.4976 5.34704C27.9223 5.39821 28.3289 5.44936 28.6293 5.48771C28.7795 5.50688 28.9032 5.52287 28.9894 5.53406L29.1244 5.55168Z" fill="#FF931E"/>
<path d="M8.09106 11.695C12.1743 11.45 22.5458 9.73502 25.6491 12.43C25.9757 12.7566 26.1391 13.4916 26.0574 13.8999C26.0574 17.0032 26.0574 20.1065 25.9757 23.2098C25.8941 26.3131 25.7307 29.4163 25.4858 32.5196C24.9958 26.3131 24.9141 20.1065 24.9141 13.9816C25.5674 10.8783 10.4594 12.0216 8.09106 11.695Z" fill="#101C1E"/>
</svg>
