<svg width="40" height="40" viewBox="0 0 40 40" fill="none" xmlns="http://www.w3.org/2000/svg">
<path d="M21.9099 11.6401C21.8299 7.47008 19.4199 2.15008 14.5699 5.15008C12.1399 6.57008 10.2599 8.72008 7.94991 10.3301C7.41991 10.7301 6.63991 10.9901 6.10991 11.3101C5.98991 11.4101 5.95991 11.4801 5.97991 11.4801C6.25991 11.7601 6.82991 11.7701 7.24991 11.7901C9.98991 11.7301 12.5999 10.3001 14.5399 8.37008L14.8799 8.73008C13.3799 10.0501 11.7999 11.3701 10.0599 12.3601C9.85991 12.5101 9.77991 12.6701 9.85991 12.7301C10.7199 13.2401 11.9699 12.6701 12.8499 12.3301C13.8699 11.8701 14.8299 11.2501 15.7399 10.5701L16.0199 10.9201C15.0299 11.7401 14.0599 12.5801 12.9699 13.2801C12.7399 13.4401 12.7899 13.3701 12.8199 13.4601C13.5799 14.0301 14.7199 13.5501 15.5099 13.1001C16.2199 12.6801 16.8399 12.1101 17.4199 11.5101L17.6799 11.7401C16.9899 12.5101 16.1999 13.3501 15.4599 14.0901C15.1899 14.3801 15.2199 14.5001 15.6199 14.5401C16.9599 14.7901 18.1699 13.1701 19.0699 12.4201L19.1999 12.5601C18.7899 12.9601 18.3899 13.3801 18.0199 13.8301C17.6499 14.3601 16.9499 14.9601 17.0799 15.6501C17.3799 15.9201 17.9199 15.7801 18.2899 15.9901C18.8399 16.2001 19.3199 16.5601 19.6999 16.9901C19.1199 16.3501 18.2999 15.9001 17.4299 15.8701C15.8899 15.6701 18.6199 12.9401 19.0699 12.4301L19.1999 12.5701C18.2499 13.4201 17.0699 15.0801 15.5899 14.8301C15.4099 14.7901 15.1599 14.8201 14.9999 14.5201C14.9299 14.1901 15.1199 14.0501 15.2299 13.9001L15.9699 13.1201C16.4699 12.6101 16.9299 12.0501 17.4099 11.5201L17.6699 11.7501C16.4899 12.9801 15.0099 14.3401 13.1399 14.0901C12.7799 14.0401 12.1499 13.6801 12.4099 13.1901C12.8299 12.7501 13.2899 12.5901 13.7399 12.1801C14.4099 11.6601 15.0599 11.1201 15.6999 10.5701L15.9799 10.9201C14.3499 12.1001 12.5099 13.3501 10.4199 13.3901C10.1099 13.3701 9.75991 13.3501 9.44991 13.0301C8.90991 12.2901 9.99991 11.7901 10.4799 11.5001C11.9099 10.5801 13.2299 9.47008 14.5199 8.36008L14.8599 8.72008C12.8299 10.7001 10.1499 12.1901 7.21991 12.2401C6.64991 12.2301 5.22991 12.1301 5.57991 11.2301C6.05991 10.6001 7.05991 10.5001 7.68991 9.98008C10.5799 8.07008 12.9099 5.00008 16.3899 4.11008C20.5099 3.36008 21.8899 8.45008 21.8899 11.6401H21.9099Z" fill="white"/>
<path d="M28.41 19.3903C31.18 18.0303 36.18 17.0603 37.28 20.9603C37.98 24.3603 36.32 27.6903 35.87 31.0003C35.75 31.7203 35.87 32.2903 35.8 33.0403C35.76 33.2803 35.59 33.5703 35.28 33.5703C34.98 33.5403 34.83 33.3903 34.69 33.2603C32.74 30.7303 32.98 27.1103 33.89 24.2503L34.36 24.3903C34.07 25.4503 33.8 26.5203 33.59 27.6003C33.41 28.4403 33.33 29.2003 33.25 30.0703C33.2 30.4203 32.89 30.8903 32.45 30.7603C32.04 30.6303 31.88 30.3403 31.73 30.0803C30.88 28.2503 31.18 26.1303 31.52 24.2203L31.92 24.3103C31.54 25.6203 31.32 26.9503 31.03 28.2603C30.94 28.4203 30.72 28.4603 30.59 28.4203C29.48 27.9803 29.42 26.5103 29.5 25.5303C29.58 24.6903 29.83 23.8903 30.13 23.1203L30.36 23.2103C29.96 24.1303 29.55 25.1603 29.2 26.1003C29.12 26.2503 29.06 26.4703 28.81 26.5203C28.56 26.5203 28.46 26.3103 28.36 26.1703C27.55 25.0203 28.5 23.3003 28.82 22.1503C28.55 23.2803 27.65 25.0203 28.47 26.1003C28.7 26.4803 28.91 26.4503 29.05 26.0403C29.37 25.0803 29.75 24.0403 30.13 23.1103L30.36 23.2003C30.08 23.9603 29.85 24.7503 29.79 25.5403C29.74 26.4303 29.8 27.6603 30.66 28.0703C30.78 28.0703 30.76 28.0903 30.79 27.8403C30.93 26.6003 31.24 25.4003 31.53 24.1903L31.93 24.2803C31.62 26.1003 31.33 28.1303 32.13 29.8503C32.24 30.0703 32.42 30.2803 32.56 30.3103C32.65 30.3603 32.76 30.2203 32.81 29.9803C32.93 28.0503 33.4 26.1203 33.9 24.2603L34.37 24.4003C33.48 27.1303 33.25 30.5603 35.02 32.9503C35.58 33.5603 35.36 32.3603 35.39 31.9903C35.49 28.9103 36.96 26.0603 37.15 23.0003C37.7 17.5403 32.06 17.6903 28.42 19.3803L28.41 19.3903Z" fill="white"/>
<path d="M35.3199 15.9105C35.3199 15.9105 31.4099 17.5805 29.8199 19.6605C28.2299 21.7405 25.1399 29.0905 19.2099 30.4805L11.1599 22.3005V19.6605L17.2899 21.7405L33.2899 13.0005L35.6299 13.6905L35.3199 15.9105Z" fill="#00AA97" stroke="#00AA97" stroke-width="0.21" stroke-miterlimit="10"/>
<path d="M11.24 19.5703C11.24 19.5703 14.79 19.0503 18.11 13.9703C21.46 8.83025 27.02 5.51025 27.02 5.51025L35.62 13.6903C35.62 13.6903 29.61 16.6003 26.63 22.0103C23.64 27.4203 19.28 28.4903 19.28 28.4903L11.24 19.5703Z" fill="#7FBF7F" stroke="#7FBF7F" stroke-width="0.17" stroke-miterlimit="10"/>
<path d="M20.3799 23.2301C22.2798 23.2301 23.8199 21.69 23.8199 19.7901C23.8199 17.8902 22.2798 16.3501 20.3799 16.3501C18.4801 16.3501 16.9399 17.8902 16.9399 19.7901C16.9399 21.69 18.4801 23.2301 20.3799 23.2301Z" fill="#00AA97" stroke="#00AA97" stroke-width="0.21" stroke-miterlimit="10"/>
<path d="M20.0298 11.0503L28.3798 19.2203L28.9998 21.7603L26.0898 25.8103L25.8598 22.9203L17.5598 14.1403L20.0298 11.0503Z" fill="#FEDC5D" stroke="#FEDC5D" stroke-width="0.08" stroke-miterlimit="10"/>
<path d="M26.0899 25.8102L25.8599 22.9202L28.3799 19.2202L28.9999 21.7602L26.0899 25.8102Z" fill="#FF931E" stroke="#FF931E" stroke-width="0.06" stroke-miterlimit="10"/>
<path d="M30.02 11.7303C30.15 12.3903 29.95 13.1103 29.43 13.6103C28.62 14.3903 27.33 14.3603 26.55 13.5403C25.77 12.7203 25.8 11.4403 26.62 10.6603C27.12 10.1803 27.79 10.0103 28.42 10.1303" stroke="#0A665C" stroke-width="0.35" stroke-miterlimit="10"/>
<path d="M25.26 14.0203L28.07 11.3403" stroke="#0A665C" stroke-width="0.35" stroke-miterlimit="10"/>
<path d="M26.01 14.8101L28.82 12.1201" stroke="#0A665C" stroke-width="0.35" stroke-miterlimit="10"/>
<path d="M2.67993 23.4902C4.84993 23.2602 6.97993 23.2202 9.11993 23.6902C6.97993 24.1102 4.77993 24.1402 2.67993 23.4902Z" fill="white"/>
<path d="M4.60986 28.8802C6.12986 27.5502 8.00986 26.8302 10.0199 26.7002C8.38986 27.9002 6.60986 28.5702 4.60986 28.8802Z" fill="white"/>
<path d="M6.92993 35.8601C8.04993 33.5301 9.52993 31.4401 11.3799 29.6201C10.2599 31.9601 8.76993 34.0401 6.92993 35.8601Z" fill="white"/>
</svg>
