<svg width="40" height="40" viewBox="0 0 40 40" fill="none" xmlns="http://www.w3.org/2000/svg">
<path d="M16.1748 23.2483H8.98975V34.37H16.1748V23.2483Z" fill="#0A665C" stroke="#0A665C" stroke-width="0.94" stroke-miterlimit="10"/>
<path d="M27.9898 9.88995C26.9298 9.92995 25.7998 10.01 24.6598 10.03C24.5798 7.82995 24.5798 5.62995 24.5598 3.43995V3.19995H24.7998L27.9998 3.22995H28.2098C28.1898 5.48995 28.0898 7.76995 27.9998 9.88995H27.9898ZM27.9898 9.88995C27.8998 7.64995 27.7998 5.53995 27.7798 3.43995L27.9898 3.64995L24.7898 3.67995L25.0298 3.43995C25.0098 5.58995 25.0098 7.73995 24.9298 9.88995L24.7898 9.74995C25.8198 9.76995 26.8698 9.84995 27.9898 9.88995Z" fill="white"/>
<path d="M35.8299 17.6799L4.10986 18.1499L8.71986 7.17993L31.2199 7.64993L35.8299 17.6799Z" fill="#12B5A3" stroke="#12B5A3" stroke-miterlimit="10"/>
<path d="M35.88 18.22C36.06 23.18 36.24 28.17 35.78 33.13C35.67 33.84 35.65 35.33 34.66 35.36C24.48 35.92 14.29 35.42 4.09996 35.3L3.70996 35.29V34.91C3.82996 31.17 3.87996 25.89 4.10996 22.2C4.27996 25.87 4.44996 31.18 4.49996 34.91L4.10996 34.52C14.22 34.4 24.78 34.86 34.68 34.58C35.23 33.24 35.21 31.57 35.37 30.09C35.63 26.14 35.77 22.17 35.88 18.21V18.22Z" fill="white"/>
<path d="M23.6399 25.6398C23.6399 25.6398 24.0399 24.5598 24.3099 22.7298C24.5099 21.3498 23.4499 21.1198 23.6399 19.9198C23.8999 18.2998 23.1799 17.1698 22.4999 16.7198C21.0199 15.7398 21.7499 14.7198 20.5299 14.3998C19.3099 14.0798 19.1499 14.0198 19.1499 14.0198C19.1499 14.0198 19.3199 16.1298 20.0899 17.1898C20.8499 18.2498 19.8999 18.9998 20.9999 20.2598C22.0999 21.5198 21.2399 22.1298 22.1799 23.4698C23.1199 24.8198 23.6299 25.6398 23.6299 25.6398H23.6399Z" fill="#91D993" stroke="#91D993" stroke-width="0.29" stroke-miterlimit="10"/>
<path d="M25.2498 26.7397C25.2498 26.7397 27.1798 25.6797 27.1798 24.4997C27.1798 23.3197 27.4598 23.1297 27.7298 22.6097C27.9998 22.0897 27.8498 21.3497 27.8898 20.2897C27.9298 19.2297 28.9498 18.7197 27.5398 16.7097C27.5398 16.7097 26.5998 17.2597 26.2798 18.5597C25.9598 19.8597 25.9298 19.8197 25.4498 20.5597C25.2598 20.8597 24.8598 21.3097 25.0198 22.4097C25.1798 23.5097 23.6398 23.3897 25.2598 26.7297L25.2498 26.7397Z" fill="#91D993" stroke="#91D993" stroke-width="0.29" stroke-miterlimit="10"/>
<path d="M25.6799 28.0397C25.6799 28.0397 27.9599 23.4597 33.5799 21.9697C33.5799 21.9697 33.6199 23.8997 32.2799 24.1997C30.9399 24.4997 31.2999 25.4697 30.1599 25.8297C29.0199 26.1897 28.7799 25.7197 28.4299 26.7397C28.0799 27.7597 27.0099 27.7597 25.6799 28.0397Z" fill="#91D993" stroke="#91D993" stroke-width="0.29" stroke-miterlimit="10"/>
<path d="M22.6198 26.7398C22.6198 26.7398 20.7098 22.0598 13.5898 19.5498C13.5898 19.5498 13.4098 21.0398 14.5598 21.7298C15.7098 22.4198 16.2998 22.4798 16.7898 23.4698C17.2798 24.4598 18.4098 24.1798 18.7998 24.4998C19.6398 25.1898 20.1098 27.4098 22.6298 26.7398H22.6198Z" fill="#91D993" stroke="#91D993" stroke-width="0.29" stroke-miterlimit="10"/>
<path d="M19.6299 14.5998C23.2399 18.3098 23.7699 23.9798 24.1399 28.9098L24.1699 31.0898C23.5499 25.4898 23.2899 19.1598 19.6299 14.5898V14.5998Z" fill="white"/>
<path d="M27.5298 16.7197C26.6898 21.3997 25.6198 26.0297 24.3298 30.6097C25.1698 25.9297 26.2398 21.2997 27.5298 16.7197Z" fill="white"/>
<path d="M33.5198 21.7998C29.3598 23.2598 25.9498 26.4998 24.3298 30.6098C25.4898 26.3098 29.1998 22.8098 33.5198 21.7998Z" fill="white"/>
<path d="M13.9199 19.6697C18.7899 20.8097 23.2499 24.7897 23.8299 29.9197C22.7599 24.9297 18.6199 21.2697 13.9199 19.6697Z" fill="white"/>
<path d="M21.5198 36.5597L21.0498 31.1997H27.3798L26.8598 36.5597H21.5198Z" fill="#00A997" stroke="#00A997" stroke-width="0.12" stroke-miterlimit="10"/>
<path d="M27.9398 31.1697L28.0698 30.6997C28.0698 30.6997 28.2098 30.3397 27.9798 30.3697L20.1898 30.2097C20.1898 30.2097 20.1498 30.2397 20.1598 30.2597L20.5798 31.1797C20.5798 31.1797 20.5998 31.1997 20.6098 31.1997H27.9098C27.9098 31.1997 27.9398 31.1897 27.9398 31.1697Z" fill="#00AA97" stroke="#00AA97" stroke-width="0.35" stroke-miterlimit="10"/>
<path d="M25.3699 33.0698C25.4899 33.9398 25.4499 34.8098 25.2499 35.6598C25.1299 34.7898 25.1699 33.9198 25.3699 33.0698Z" fill="#101C1E"/>
<path d="M26.3297 32.0698C26.4297 33.2898 26.3697 34.4998 26.1597 35.6998C26.0597 34.4798 26.1197 33.2698 26.3297 32.0698Z" fill="#101C1E"/>
<path d="M18.5598 16.5399C16.7398 16.1599 16.5398 13.9799 16.3098 12.4799C15.9898 10.9099 14.7198 9.87987 13.7898 8.61987C15.1598 9.49987 16.6298 10.5899 16.9998 12.3099C17.2898 13.8199 17.0398 15.6099 18.5598 16.5399Z" fill="white"/>
<path d="M17.3699 17.5699C16.1899 17.7599 15.4099 16.5399 14.7999 15.8099C14.1199 14.9899 13.0699 14.7099 12.1599 14.1899C13.2299 14.3799 14.3499 14.6699 15.1199 15.5099C15.8099 16.3599 16.2199 17.3499 17.3699 17.5699Z" fill="white"/>
<path d="M33.7299 17.0598C33.8199 18.2498 32.5399 18.9198 31.7499 19.4698C30.8799 20.0798 30.4999 21.0998 29.9099 21.9598C30.1899 20.9098 30.5699 19.8198 31.4799 19.1298C32.3799 18.5198 33.3999 18.1898 33.7199 17.0598H33.7299Z" fill="white"/>
<path d="M27.35 32.0901L21.08 32.1701L21.01 31.3701L27.4 31.5101L27.35 32.0901Z" fill="#008C78"/>
</svg>
