<svg width="40" height="40" viewBox="0 0 40 40" fill="none" xmlns="http://www.w3.org/2000/svg">
<path d="M0.469971 32.5599C13.49 31.9999 26.52 32.0099 39.54 32.5999C26.52 33.1599 13.49 33.1499 0.469971 32.5599Z" fill="white"/>
<path d="M21.99 19.3902C25.2982 19.3902 27.98 16.7083 27.98 13.4002C27.98 10.092 25.2982 7.41016 21.99 7.41016C18.6818 7.41016 16 10.092 16 13.4002C16 16.7083 18.6818 19.3902 21.99 19.3902Z" fill="#FEDC5D" stroke="#FEDC5D" stroke-width="1.2" stroke-miterlimit="10"/>
<path d="M24.56 15.01C24.06 15.83 23.16 16.38 22.14 16.39C20.54 16.41 19.2299 15.14 19.2099 13.54C19.1899 11.94 20.46 10.63 22.06 10.61C23.04 10.6 23.91 11.07 24.44 11.8" stroke="#101C1E" stroke-width="0.9" stroke-miterlimit="10"/>
<path d="M17.3899 12.8002L22.8999 12.7202" stroke="#101C1E" stroke-width="0.9" stroke-miterlimit="10"/>
<path d="M17.4099 14.3503L22.9299 14.2603" stroke="#101C1E" stroke-width="0.9" stroke-miterlimit="10"/>
<path d="M10.83 16.6899L30.23 18.5899C31.02 18.6699 31.52 19.4599 31.24 20.2099C30.16 23.0999 27.7 29.2599 26.35 29.4999C26.35 29.4999 13.04 29.7299 11.51 27.7999C10.39 26.3799 10.23 20.9499 9.53996 18.1899C9.33996 17.3799 9.99996 16.6299 10.83 16.7099V16.6899Z" fill="#7FBF7F" stroke="#7FBF7F" stroke-width="0.11" stroke-miterlimit="10"/>
<path d="M15.0798 32.1302C13.4898 32.3302 12.0198 30.9202 11.8198 29.3202C11.6198 27.7302 12.7798 26.5502 14.3698 26.3602C15.9598 26.1702 17.2298 27.5202 17.4198 29.1102C17.6198 30.7002 16.6698 31.9302 15.0798 32.1302Z" fill="#00AA97" stroke="#00AA97" stroke-width="0.45" stroke-miterlimit="10"/>
<path d="M25.5 31.9703C23.91 32.1703 22.44 30.7603 22.24 29.1603C22.04 27.5703 23.2 26.3903 24.79 26.2003C26.38 26.0003 27.65 27.3603 27.84 28.9503C28.04 30.5403 27.09 31.7703 25.5 31.9703Z" fill="#00AA97" stroke="#00AA97" stroke-width="0.45" stroke-miterlimit="10"/>
<path d="M2.62988 12.1601C6.25988 12.0001 9.86988 12.9601 13.2899 14.0901C9.74988 13.6801 6.13988 12.7201 2.62988 12.1601Z" fill="white"/>
<path d="M6.7998 9.72021C8.8398 9.73021 10.8998 10.1702 12.7198 11.1102C10.6898 10.8802 8.7198 10.4602 6.7998 9.72021Z" fill="white"/>
<path d="M14.8898 30.9001C13.9798 31.0101 13.1398 30.2101 13.0298 29.3001C12.9198 28.3901 13.5798 27.7201 14.4798 27.6101C15.3798 27.5001 16.1098 28.2701 16.2198 29.1801C16.3298 30.0901 15.7898 30.7901 14.8798 30.9001H14.8898Z" fill="#101C1E"/>
<path d="M25.34 30.9603C24.31 31.0903 23.35 30.1703 23.23 29.1403C23.1 28.1103 23.85 27.3503 24.88 27.2203C25.91 27.0903 26.73 27.9703 26.86 29.0003C26.99 30.0303 26.37 30.8303 25.34 30.9603Z" fill="#101C1E"/>
</svg>
