<svg width="40" height="40" viewBox="0 0 40 40" fill="none" xmlns="http://www.w3.org/2000/svg">
<circle cx="33.0012" cy="7" r="5" fill="#FEDC5D"/>
<path d="M22.9585 34.0784H17.0547V22.762L22.9585 22.9731V34.0784Z" fill="#68DEB4"/>
<path fill-rule="evenodd" clip-rule="evenodd" d="M16.5781 22.2688L23.4347 22.5141V34.5553H16.5781V22.2688ZM17.5309 23.2562V33.6026H22.4819V23.4333L17.5309 23.2562Z" fill="#68DEB4"/>
<path d="M34.5689 18.7722C34.725 22.4082 34.7984 26.0487 34.6745 29.6892C34.5964 31.0894 34.5964 32.4621 34.2154 33.8439C34.1649 33.9725 34.1327 34.0964 33.9858 34.2709C33.8757 34.4086 33.6232 34.4729 33.4533 34.4912C31.392 34.6978 29.3307 34.6657 27.274 34.7116C19.9976 34.7713 12.7303 34.6565 5.45838 34.4407L5.0957 34.4316V34.0781C5.16916 30.1942 5.27475 26.315 5.46297 22.4311C5.65119 26.3104 5.75678 30.1942 5.82565 34.0781L5.46756 33.7154C10.0905 33.6878 29.0966 34.0092 33.3477 33.7659C33.4395 33.7659 33.5589 33.7154 33.4487 33.7797C33.4533 33.7797 33.5038 33.6878 33.5359 33.6052C33.9078 32.3657 33.9583 30.9655 34.0822 29.6571C34.3393 26.0441 34.4541 22.4082 34.5597 18.7722H34.5689Z" fill="#F8FBFB"/>
<path d="M34.5217 18.2772L5.44336 18.7133L9.67611 8.65479L30.289 9.09092L34.5217 18.2772Z" fill="#68DEB4"/>
<path fill-rule="evenodd" clip-rule="evenodd" d="M9.04945 7.68896L30.9053 8.15139L36 19.2083L4 19.6882L9.04945 7.68896ZM10.3036 9.62144L6.88753 17.7392L33.0443 17.3469L29.6734 10.0313L10.3036 9.62144Z" fill="#68DEB4"/>
<path d="M10.791 17.1145H7.302L10.4789 10.3201H13.3252L10.791 17.1145Z" fill="#175217"/>
<path fill-rule="evenodd" clip-rule="evenodd" d="M10.2275 9.92578H13.8949L11.0658 17.511H6.68091L10.2275 9.92578ZM10.7307 10.7166L7.92361 16.7202H10.5168L12.756 10.7166H10.7307Z" fill="#175217"/>
<path d="M16.1452 17.1145H12.1282L14.5935 10.3201H17.4398L16.1452 17.1145Z" fill="#175217"/>
<path fill-rule="evenodd" clip-rule="evenodd" d="M14.314 9.92554H17.9153L16.47 17.5108H11.5618L14.314 9.92554ZM14.8683 10.7163L12.6899 16.72H15.8157L16.9596 10.7163H14.8683Z" fill="#175217"/>
<path d="M22.0708 17.1145H17.4524L18.6276 10.3201H20.9782L22.0708 17.1145Z" fill="#175217"/>
<path fill-rule="evenodd" clip-rule="evenodd" d="M18.2937 9.92554H21.314L22.5338 17.5108H16.9817L18.2937 9.92554ZM18.9595 10.7163L17.921 16.72H21.6057L20.6402 10.7163H18.9595Z" fill="#175217"/>
<path d="M28.8459 17.1145H32.3349L29.1581 10.3201H26.3118L28.8459 17.1145Z" fill="#175217"/>
<path fill-rule="evenodd" clip-rule="evenodd" d="M25.7434 9.92554H29.4108L32.9574 17.5108H28.5725L25.7434 9.92554ZM26.8823 10.7163L29.1215 16.72H31.7147L28.9076 10.7163H26.8823Z" fill="#175217"/>
<path d="M23.4885 17.1145H27.5101L25.0402 10.3201H22.1985L23.4885 17.1145Z" fill="#175217"/>
<path fill-rule="evenodd" clip-rule="evenodd" d="M21.7219 9.92554H25.3182L28.0755 17.5108H23.1621L21.7219 9.92554ZM22.677 10.7163L23.8169 16.72H26.9466L24.7642 10.7163H22.677Z" fill="#175217"/>
<path d="M8.22314 11.8124C15.7843 11.6609 24.0983 11.6609 31.6594 11.8124C24.0983 11.9639 15.7843 11.9639 8.22314 11.8124Z" fill="#68DEB4"/>
<path d="M7.04736 13.5246C15.366 13.3915 24.5155 13.4144 32.8295 13.5843C24.5109 13.7174 15.3614 13.6945 7.04736 13.5246Z" fill="#68DEB4"/>
<path d="M7.04736 15.5771C15.366 15.444 24.5155 15.4669 32.8295 15.6368C24.5109 15.7699 15.3614 15.747 7.04736 15.5771Z" fill="#68DEB4"/>
<path d="M12.7515 11.5398C8.99153 9.18984 5.74153 6.15984 2.82153 2.83984C6.41153 5.42984 9.62153 8.41984 12.7515 11.5398Z" fill="white"/>
<path d="M12.9712 7.46C11.5512 5.88 10.5512 4.05 10.0012 2C11.4312 3.58 12.4212 5.41 12.9712 7.46Z" fill="white"/>
<path d="M8.13928 11.3311C6.02106 11.4922 3.96102 11.168 2.00122 10.353C4.12554 10.184 6.17948 10.5162 8.13928 11.3311Z" fill="white"/>
<path d="M27.9075 19.4211C31.8677 21.4065 35.401 24.1106 38.6266 27.1388C34.8014 24.9079 31.3309 22.2274 27.9075 19.4211Z" fill="white"/>
<path d="M26.4832 21.3445C28.1808 22.6228 29.5086 24.2414 30.4352 26.1453C28.7355 24.8572 27.4215 23.2562 26.4832 21.3445Z" fill="white"/>
</svg>
