<svg width="40" height="40" viewBox="0 0 40 40" fill="none" xmlns="http://www.w3.org/2000/svg">
<path d="M31.0844 33.0049L24.063 24.0078C23.2458 24.9175 22.2437 25.6637 21.1138 26.1825L28.192 35.2577C28.5971 35.7765 29.3433 35.8688 29.8621 35.4638L30.8712 34.6749C31.39 34.2698 31.4824 33.5236 31.0773 33.0049H31.0844Z" fill="#6288F6"/>
<path fill-rule="evenodd" clip-rule="evenodd" d="M24.0784 23.5659L31.666 33.2885H31.544C31.7266 33.8595 31.5466 34.5075 31.0461 34.8983C31.046 34.8984 31.0461 34.8983 31.0461 34.8983L30.0369 35.6872C29.3944 36.1889 28.4698 36.0743 27.9684 35.4322L20.6694 26.074L20.9954 25.9243C22.0895 25.422 23.0601 24.6993 23.852 23.8179L24.0784 23.5659ZM30.503 32.7209L24.044 24.4445C23.3274 25.1865 22.4867 25.812 21.5538 26.2849L28.4158 35.0828C28.7245 35.4782 29.2924 35.5483 29.6875 35.2399L30.6965 34.4511C31.0919 34.1424 31.1621 33.5744 30.8537 33.1793L30.4957 32.7209H30.503Z" fill="#6288F6"/>
<path fill-rule="evenodd" clip-rule="evenodd" d="M17.3835 9.4483C12.6515 9.4483 8.81549 13.2843 8.81549 18.0163C8.81549 22.7482 12.6515 26.5843 17.3835 26.5843C22.1154 26.5843 25.9514 22.7482 25.9514 18.0163C25.9514 13.2843 22.1154 9.4483 17.3835 9.4483ZM8 18.0163C8 12.8339 12.2011 8.63281 17.3835 8.63281C22.5658 8.63281 26.7669 12.8339 26.7669 18.0163C26.7669 23.1986 22.5658 27.3997 17.3835 27.3997C12.2011 27.3997 8 23.1986 8 18.0163Z" fill="#6288F6"/>
<path d="M13.673 13.2635C13.673 13.2635 14.6679 12.7091 15.1369 13.2635C15.1369 13.2635 15.2578 19.7518 15.1867 21.294C15.1867 21.294 14.2628 21.564 13.7014 21.294C13.7014 21.294 13.5877 14.5995 13.6659 13.2706L13.673 13.2635Z" fill="#FF931E"/>
<path fill-rule="evenodd" clip-rule="evenodd" d="M13.8098 13.3593C13.7759 14.0883 13.7847 16.0058 13.8027 17.7784C13.812 18.698 13.8238 19.5761 13.8332 20.2244C13.8379 20.5485 13.842 20.8151 13.845 21.0007L13.8481 21.1941C14.0801 21.2767 14.3755 21.2771 14.6386 21.2476C14.7827 21.2314 14.9104 21.2071 15.0021 21.1868C15.017 21.1835 15.0309 21.1804 15.0438 21.1773C15.0736 20.3434 15.0614 18.4377 15.041 16.7014C15.0304 15.7943 15.0175 14.9353 15.0073 14.303C15.0022 13.9869 14.9977 13.7275 14.9946 13.5472L14.9905 13.3218C14.8109 13.1462 14.5386 13.1368 14.262 13.1992C14.1199 13.2312 13.9899 13.2797 13.8947 13.3207C13.8615 13.3349 13.8329 13.3482 13.8098 13.3593ZM15.2853 13.26C15.2846 13.226 15.2723 13.1932 15.2503 13.1672C14.9594 12.8234 14.5171 12.8384 14.197 12.9106C14.0317 12.9478 13.8837 13.0033 13.7777 13.0489C13.7245 13.0719 13.6812 13.0926 13.6509 13.1077C13.6357 13.1153 13.6238 13.1216 13.6154 13.126L13.6056 13.1313L13.6028 13.1328L13.6019 13.1333C13.6019 13.1333 13.6014 13.1335 13.6734 13.2627L13.6019 13.1333C13.59 13.1399 13.5785 13.1485 13.5688 13.1582L13.5617 13.1653C13.5361 13.1909 13.5208 13.225 13.5187 13.2612C13.4792 13.9321 13.4882 15.9446 13.5069 17.7814C13.5162 18.7016 13.528 19.5801 13.5374 20.2287C13.5421 20.5529 13.5463 20.8197 13.5492 21.0054L13.554 21.2955C13.5549 21.3514 13.5873 21.4023 13.6377 21.4266C13.9578 21.5805 14.3645 21.576 14.6715 21.5415C14.8285 21.5239 14.9668 21.4976 15.066 21.4757C15.1156 21.4647 15.1557 21.4548 15.1836 21.4475C15.1975 21.4439 15.2085 21.4409 15.2161 21.4388L15.225 21.4363L15.2275 21.4356L15.2285 21.4353C15.2891 21.4176 15.332 21.3632 15.3349 21.3001C15.3707 20.5237 15.3581 18.5108 15.3368 16.698C15.3262 15.7903 15.3133 14.9308 15.303 14.2983C15.2979 13.982 15.2935 13.7225 15.2903 13.542L15.2853 13.26Z" fill="#FF931E"/>
<path d="M16.4876 14.0662C16.4876 14.0662 17.4826 13.5119 17.9516 14.0662C17.9516 14.0662 18.0724 19.7515 18.0085 21.2866C18.0085 21.2866 17.0846 21.5566 16.5232 21.2866C16.5232 21.2866 16.4095 15.4022 16.4876 14.0662Z" fill="#FF931E"/>
<path fill-rule="evenodd" clip-rule="evenodd" d="M16.6313 14.1587C16.5978 14.8791 16.6065 16.5998 16.6244 18.175C16.6338 18.9937 16.6455 19.7707 16.655 20.3431C16.6597 20.6293 16.6638 20.8643 16.6668 21.0277L16.6697 21.1866C16.9017 21.2692 17.1972 21.2696 17.4603 21.2401C17.6045 21.224 17.7322 21.1997 17.8238 21.1794C17.8386 21.1762 17.8524 21.173 17.8652 21.17C17.8916 20.3548 17.8778 18.6439 17.8566 17.1021C17.8455 16.2958 17.8324 15.5374 17.8221 14.9805C17.8169 14.7021 17.8124 14.4741 17.8093 14.3157L17.8054 14.1247C17.6257 13.949 17.3534 13.9395 17.0767 14.0019C16.9346 14.0339 16.8046 14.0824 16.7094 14.1234C16.6794 14.1363 16.6532 14.1483 16.6313 14.1587ZM18.0999 14.0623C18.0992 14.0284 18.0869 13.9958 18.065 13.9699C17.7741 13.6261 17.3317 13.6412 17.0117 13.7133C16.8464 13.7506 16.6984 13.806 16.5924 13.8517C16.5391 13.8746 16.4959 13.8953 16.4656 13.9105C16.4504 13.9181 16.4385 13.9243 16.4301 13.9287L16.4203 13.934L16.4175 13.9355L16.4166 13.936C16.4166 13.936 16.4161 13.9363 16.4881 14.0655L16.4166 13.936C16.3724 13.9606 16.3434 14.0064 16.3404 14.0568C16.301 14.7314 16.31 16.5429 16.3286 18.1784C16.338 18.9977 16.3498 19.7753 16.3592 20.348C16.3639 20.6343 16.368 20.8695 16.371 21.0331L16.3757 21.2884C16.3768 21.3442 16.4092 21.395 16.4595 21.4191C16.7795 21.5731 17.1863 21.5685 17.4933 21.5341C17.6503 21.5165 17.7886 21.4902 17.8877 21.4683C17.9374 21.4573 17.9774 21.4473 18.0054 21.4401C18.0193 21.4364 18.0303 21.4335 18.0379 21.4314L18.0468 21.4289L18.0493 21.4282L18.0503 21.4279C18.1111 21.4101 18.1541 21.3554 18.1567 21.292C18.1889 20.5194 18.1746 18.7095 18.1524 17.098C18.1413 16.2911 18.1282 15.5322 18.1178 14.9751C18.1127 14.6965 18.1082 14.4683 18.105 14.3098L18.0999 14.0623Z" fill="#FF931E"/>
<path d="M19.302 16.5955C19.302 16.5955 20.2969 16.0412 20.766 16.5955C20.766 16.5955 20.8939 19.7508 20.8228 21.2859C20.8228 21.2859 19.8989 21.5559 19.3375 21.2859C19.3375 21.2859 19.2167 17.9315 19.2949 16.5955H19.302Z" fill="#FF931E"/>
<path fill-rule="evenodd" clip-rule="evenodd" d="M19.3737 16.7245L19.3753 16.7236L19.3823 16.7199C19.3887 16.7164 19.3986 16.7113 19.4116 16.7048C19.4192 16.701 19.4279 16.6967 19.4375 16.6921C19.4045 17.3653 19.4149 18.4752 19.4345 19.4385C19.4447 19.9407 19.4573 20.4012 19.4674 20.7362C19.4725 20.9037 19.4769 21.0398 19.48 21.134L19.4818 21.1859C19.454 21.1759 19.4271 21.1648 19.4014 21.1524L19.3372 21.2857L19.1894 21.2909L19.1881 21.2528L19.1844 21.1439C19.1812 21.0494 19.1768 20.913 19.1717 20.7451C19.1616 20.4095 19.149 19.9479 19.1387 19.4445C19.1183 18.4399 19.1075 17.2614 19.1469 16.5866C19.1507 16.5223 19.1952 16.4696 19.2544 16.4529C19.2613 16.4493 19.2696 16.4451 19.2792 16.4403C19.3095 16.4251 19.3528 16.4044 19.406 16.3815C19.512 16.3358 19.66 16.2804 19.8253 16.2431C20.1454 16.171 20.5877 16.1559 20.8786 16.4997C20.8999 16.5249 20.9121 16.5564 20.9135 16.5893L20.9149 16.6253L20.9188 16.7283C20.9222 16.8177 20.9269 16.9472 20.9324 17.1072C20.9433 17.4274 20.9571 17.8703 20.9686 18.3613C20.9917 19.3418 21.0061 20.5192 20.9703 21.2925C20.9674 21.3556 20.9247 21.4099 20.864 21.4276L20.8629 21.428L20.8604 21.4287L20.8515 21.4312C20.8439 21.4333 20.8329 21.4363 20.819 21.4399C20.7911 21.4472 20.751 21.4571 20.7013 21.4681C20.6022 21.49 20.4639 21.5163 20.3069 21.5339C19.9999 21.5683 19.5932 21.5729 19.2731 21.419C19.2236 21.3952 19.1914 21.3458 19.1894 21.2909L19.3372 21.2857M20.6794 21.1697C20.6665 21.1727 20.6525 21.1759 20.6375 21.1792C20.5458 21.1995 20.4181 21.2238 20.2739 21.24C20.0102 21.2695 19.7141 21.269 19.4818 21.1859M20.6794 21.1697C20.7087 20.4086 20.6949 19.3035 20.6729 18.3683C20.6614 17.8786 20.6476 17.4367 20.6367 17.1173C20.6313 16.9576 20.6266 16.8285 20.6232 16.7394L20.62 16.6555C20.4404 16.4788 20.1675 16.4692 19.8903 16.5317C19.7482 16.5637 19.6182 16.6122 19.523 16.6532C19.4895 16.6676 19.4607 16.6809 19.4375 16.6921C19.439 16.6618 19.4406 16.6324 19.4423 16.6039L19.3019 16.5957" fill="#FF931E"/>
<path d="M17.3834 25.3218C13.4179 25.6558 9.74378 21.9816 10.0778 18.0161C10.1489 18.9684 10.3692 19.9065 10.7529 20.7593C11.89 23.3888 14.5124 25.1441 17.3834 25.3147V25.3218Z" fill="white"/>
<path fill-rule="evenodd" clip-rule="evenodd" d="M13.2913 21.4638C13.2913 21.3468 13.3861 21.252 13.5031 21.252H23.2179C23.335 21.252 23.4298 21.3468 23.4298 21.4638C23.4298 21.5808 23.335 21.6757 23.2179 21.6757H13.5031C13.3861 21.6757 13.2913 21.5808 13.2913 21.4638Z" fill="#FF931E"/>
<path fill-rule="evenodd" clip-rule="evenodd" d="M16.4773 14.2734L21.3736 19.2978L23.2908 17.3933L23.7134 17.8188L21.3666 20.1499L16.4841 15.1396L12.2571 19.617L11.821 19.2053L16.4773 14.2734Z" fill="#FEDC5D"/>
<path d="M26.0462 14.8551C28.8682 14.8551 31.1559 12.5674 31.1559 9.74544C31.1559 6.92343 28.8682 4.63574 26.0462 4.63574C23.2242 4.63574 20.9365 6.92343 20.9365 9.74544C20.9365 12.5674 23.2242 14.8551 26.0462 14.8551Z" fill="#FEDC5D"/>
<path fill-rule="evenodd" clip-rule="evenodd" d="M26.0461 5.27121C23.5751 5.27121 21.572 7.27432 21.572 9.7453C21.572 12.2163 23.5751 14.2194 26.0461 14.2194C28.5171 14.2194 30.5202 12.2163 30.5202 9.7453C30.5202 7.27432 28.5171 5.27121 26.0461 5.27121ZM20.3008 9.7453C20.3008 6.57226 22.873 4 26.0461 4C29.2191 4 31.7914 6.57226 31.7914 9.7453C31.7914 12.9183 29.2191 15.4906 26.0461 15.4906C22.873 15.4906 20.3008 12.9183 20.3008 9.7453Z" fill="#FEDC5D"/>
<path fill-rule="evenodd" clip-rule="evenodd" d="M29.5356 7.28778C29.6603 7.42506 29.6501 7.63743 29.5128 7.76211C29.1841 8.06059 28.2245 9.15315 27.3261 10.1976C26.8818 10.7142 26.4591 11.2112 26.1474 11.5792C25.9916 11.7631 25.8635 11.9147 25.7745 12.0203L25.6355 12.1854L25.3784 11.9694L25.153 12.2184L25.0527 12.1274C24.9888 12.0694 24.8971 11.9862 24.7864 11.8854C24.5649 11.6838 24.2668 11.4118 23.9607 11.1301C23.6547 10.8486 23.3398 10.5566 23.0849 10.3155C22.8385 10.0824 22.6279 9.87801 22.5483 9.78291C22.4293 9.64071 22.448 9.42893 22.5902 9.30988C22.7324 9.19084 22.9442 9.2096 23.0632 9.3518C23.1115 9.40949 23.2865 9.58176 23.5464 9.82767C23.7979 10.0656 24.1102 10.3551 24.4154 10.6359C24.7204 10.9165 25.0175 11.1877 25.2384 11.3887C25.2767 11.4236 25.3127 11.4563 25.3461 11.4867C25.4253 11.3928 25.523 11.2772 25.635 11.1451C25.9473 10.7763 26.3712 10.278 26.817 9.75969C27.6989 8.73434 28.6935 7.59895 29.0613 7.26495C29.1986 7.14027 29.4109 7.15049 29.5356 7.28778ZM25.3784 11.9694L25.153 12.2184C25.2207 12.2796 25.3103 12.3106 25.4013 12.3044C25.4923 12.2982 25.5768 12.2552 25.6355 12.1854L25.3784 11.9694Z" fill="#7A5000"/>
</svg>
