<svg width="40" height="40" viewBox="0 0 40 40" fill="none" xmlns="http://www.w3.org/2000/svg">
<path d="M19.9996 4.41992L5.25182 14.4373C4.6953 14.8547 4.34747 15.4808 4.34747 16.1764V33.846C4.34747 34.4721 4.83443 34.9591 5.46052 34.9591H34.5388C35.1649 34.9591 35.6518 34.4721 35.6518 33.846V16.1069C35.6518 15.4112 35.304 14.7851 34.7475 14.3677L19.9996 4.41992Z" fill="#FEDC5D"/>
<path fill-rule="evenodd" clip-rule="evenodd" d="M19.9993 4L34.9496 14.0844L34.9565 14.0896C35.5908 14.5653 36 15.2901 36 16.107V33.8461C36 34.6643 35.3573 35.307 34.5391 35.307H5.46087C4.64268 35.307 4 34.6643 4 33.8461V16.1765C4 15.3596 4.40924 14.6348 5.04348 14.1591L5.05 14.1543L19.9993 4ZM20.0007 4.84003L5.4546 14.7204C4.97956 15.0794 4.69565 15.6047 4.69565 16.1765V33.8461C4.69565 34.2801 5.02688 34.6113 5.46087 34.6113H34.5391C34.9731 34.6113 35.3043 34.2801 35.3043 33.8461V16.107C35.3043 15.5353 35.0206 15.0101 34.5458 14.6511L20.0007 4.84003Z" fill="#FEDC5D"/>
<path d="M32.1046 8.59375V17.7764L20.0002 25.4981L7.33936 17.4285V8.59375H32.1046Z" fill="#FFF4DE"/>
<path fill-rule="evenodd" clip-rule="evenodd" d="M6.99084 8.24536H32.4517V17.9665L19.9996 25.9101L6.99084 17.6187V8.24536ZM7.6865 8.94101V17.2372L19.9995 25.085L31.7561 17.5851V8.94101H7.6865Z" fill="#FFF4DE"/>
<path fill-rule="evenodd" clip-rule="evenodd" d="M22.3533 15.01C21.4839 14.2965 20.4087 13.9254 19.5502 14.0174C17.7651 14.2087 16.3633 15.6105 16.172 17.3956L16.1719 17.3969C15.9166 19.6941 17.7019 21.6716 20.0001 21.6716C20.1922 21.6716 20.3479 21.8273 20.3479 22.0194C20.3479 22.2115 20.1922 22.3672 20.0001 22.3672C17.2898 22.3672 15.1795 20.032 15.4804 17.3208C15.7068 15.2105 17.3657 13.5518 19.4761 13.3257C20.5654 13.209 21.8206 13.6728 22.7947 14.4723C23.7737 15.2758 24.5218 16.4625 24.5218 17.8455H24.174C24.5218 17.8455 24.5218 17.8456 24.5218 17.8457V17.8459L24.5218 17.8466L24.5218 17.8483L24.5218 17.8536L24.5215 17.8715C24.5212 17.8865 24.5207 17.9077 24.5196 17.9341C24.5175 17.9869 24.5134 18.061 24.5051 18.1495C24.4887 18.325 24.4556 18.5646 24.3872 18.8088C24.32 19.0489 24.2116 19.3198 24.0295 19.5366C23.8386 19.7638 23.5639 19.9324 23.2001 19.9324C22.6581 19.9324 22.2448 19.7411 21.9446 19.4492C21.8076 19.3161 21.6981 19.166 21.6105 19.0111C21.5921 19.0468 21.5728 19.0819 21.5527 19.1164C21.2613 19.616 20.776 20.002 20.0696 20.002C19.424 20.002 18.9435 19.7739 18.6398 19.3535C18.3515 18.9542 18.2609 18.4328 18.2609 17.915C18.2609 16.8318 18.9693 15.6194 20.2783 15.6194C20.9359 15.6194 21.3806 15.9554 21.6483 16.3303C21.9045 16.6889 22.0175 17.1066 22.0175 17.3585C22.0175 17.4372 21.9913 17.5098 21.9472 17.5681C21.9467 17.5974 21.9458 17.6269 21.9446 17.6566C21.954 17.8136 21.9824 18.0451 22.0547 18.2837C22.1317 18.538 22.2517 18.7776 22.4295 18.9504C22.5988 19.115 22.8377 19.2368 23.2001 19.2368C23.3232 19.2368 23.4137 19.188 23.4968 19.0892C23.5886 18.9799 23.6628 18.816 23.7173 18.6213C23.7707 18.4307 23.7984 18.2355 23.8125 18.0849C23.8194 18.0104 23.8228 17.9487 23.8245 17.9063C23.8254 17.8852 23.8258 17.869 23.826 17.8585L23.8262 17.8473L23.8262 17.8455C23.8262 16.7241 23.2177 15.7195 22.3533 15.01ZM21.3094 17.2554C21.2839 17.125 21.2161 16.922 21.0823 16.7346C20.9152 16.5008 20.6643 16.315 20.2783 16.315C19.5004 16.315 18.9566 17.0504 18.9566 17.915C18.9566 18.3712 19.04 18.7194 19.2038 18.9462C19.3523 19.1518 19.6022 19.3063 20.0696 19.3063C20.4764 19.3063 20.7563 19.101 20.9518 18.7659C21.1309 18.4588 21.2275 18.0554 21.2481 17.6591C21.2436 17.5659 21.2442 17.4887 21.2478 17.4411L21.2479 17.4402C21.2485 17.4323 21.2506 17.4036 21.2579 17.3728C21.2599 17.3644 21.2656 17.3408 21.2779 17.3127C21.2829 17.3012 21.2927 17.28 21.3094 17.2554Z" fill="#FF931E"/>
</svg>
