<svg width="40" height="40" viewBox="0 0 40 40" fill="none" xmlns="http://www.w3.org/2000/svg">
<path d="M29.1701 22.7167C26.748 14.401 19.8606 13.8746 14.9242 14.4673C9.98779 15.0562 6.62325 21.362 5.88334 23.6149C4.27469 28.5071 6.21096 31.9084 6.21096 31.9084C6.222 31.9121 6.23305 31.9158 6.24409 31.9195C6.22937 31.2679 6.37661 30.6164 6.69687 30.0384C7.12388 29.2764 7.91164 28.5144 9.35832 28.5144C13.426 28.5144 13.0689 31.5661 13.0689 31.5661C13.0689 31.5661 13.091 31.9489 13.0026 32.4717C17.328 32.6005 19.3158 32.6079 23.2325 32.5747C23.0632 31.717 23.181 30.8225 23.6116 30.0532C24.035 29.2948 24.8191 28.5365 26.2584 28.5365C30.3002 28.5365 29.9469 31.5698 29.9469 31.5698C29.9469 31.5698 29.9689 31.96 29.8769 32.4901C33.6317 32.4275 33.9777 32.2618 34.6624 31.1685C36.4146 28.3672 34.2722 23.6333 29.1701 22.7204V22.7167Z" fill="#FF931E"/>
<path fill-rule="evenodd" clip-rule="evenodd" d="M29.3158 22.5609C31.859 23.0477 33.6777 24.4733 34.6457 26.1448C35.6257 27.8367 35.7388 29.7952 34.8183 31.2669C34.6461 31.5418 34.4849 31.7759 34.2774 31.9644C34.0661 32.1564 33.8153 32.2938 33.472 32.3933C32.8019 32.5875 31.749 32.6437 29.8798 32.6748L29.6574 32.6785L29.6954 32.4593C29.7398 32.204 29.7566 31.9824 29.7623 31.8251C29.7652 31.7466 29.7653 31.6844 29.7647 31.6423C29.7644 31.6213 29.7639 31.6054 29.7635 31.595L29.7631 31.5836L29.763 31.5811M28.9859 22.7437C27.7877 18.6533 25.5019 16.4945 22.9193 15.422C20.3206 14.3429 17.4019 14.3559 14.946 14.6507C12.5488 14.9367 10.5127 16.6157 8.97346 18.5331C7.43671 20.4474 6.42116 22.5674 6.05806 23.673C5.26498 26.0849 5.34649 28.1261 5.62446 29.562C5.7632 30.2787 5.95094 30.8449 6.10354 31.231C6.17047 30.786 6.31322 30.3515 6.53573 29.9499L6.53615 29.9492C6.98768 29.1434 7.82992 28.3311 9.35817 28.3311C11.4456 28.3311 12.4426 29.1196 12.9001 29.9524C13.1247 30.361 13.2122 30.7677 13.244 31.0707C13.26 31.2226 13.2621 31.3497 13.2602 31.4397C13.2592 31.4847 13.2572 31.5206 13.2553 31.5459C13.2546 31.5564 13.2538 31.5651 13.2532 31.5719L13.2535 31.5774C13.2539 31.5901 13.2545 31.6085 13.2549 31.6319C13.2556 31.6788 13.2556 31.746 13.2527 31.8299C13.2485 31.9527 13.2381 32.1117 13.2148 32.2945C17.3161 32.4151 19.3033 32.4237 23.0148 32.3932C22.8966 31.5632 23.0338 30.709 23.4509 29.964C23.8988 29.1617 24.7375 28.3532 26.2582 28.3532C28.3328 28.3532 29.3242 29.1371 29.7795 29.9652C30.0028 30.3715 30.09 30.776 30.1218 31.0772C30.1378 31.2282 30.1399 31.3546 30.138 31.4441C30.1371 31.4889 30.1351 31.5246 30.1333 31.5497C30.1327 31.557 30.1322 31.5634 30.1318 31.5689C30.1316 31.5713 30.1314 31.5735 30.1312 31.5756M12.886 31.5451L12.8864 31.5406C12.8868 31.5361 12.8875 31.529 12.8882 31.5192C12.8896 31.4997 12.8913 31.4701 12.8921 31.4317C12.8938 31.3548 12.892 31.2435 12.8779 31.1092C12.8496 30.8401 12.7722 30.4839 12.5775 30.1296C12.1967 29.4366 11.3384 28.6992 9.35817 28.6992C7.99327 28.6992 7.26 29.4107 6.85746 30.1288C6.55428 30.6761 6.41391 31.2949 6.42795 31.916L6.43386 32.1775L6.08573 32.0615L6.05086 32.0002L6.18924 31.9214C6.05085 32.0002 6.05091 32.0003 6.05086 32.0002L6.05059 31.9998L6.05016 31.999L6.04876 31.9965L6.04396 31.9878C6.03988 31.9804 6.03407 31.9697 6.02671 31.9557C6.01198 31.9278 5.99103 31.8871 5.96518 31.8338C5.91351 31.7274 5.84227 31.5712 5.76225 31.369C5.60225 30.9645 5.40699 30.3755 5.26305 29.6319C4.97505 28.1441 4.89277 26.0384 5.70832 23.5581M12.886 31.5451L12.8859 31.5456L12.8841 31.5614L12.885 31.5772L12.885 31.5776L12.8851 31.58L12.8856 31.5912C12.886 31.6014 12.8865 31.6171 12.8868 31.6377C12.8874 31.679 12.8874 31.7401 12.8848 31.8173C12.8795 31.9718 12.8636 32.1899 12.821 32.4417L12.7858 32.6501L12.997 32.6563C17.3251 32.7853 19.3152 32.7926 23.2339 32.7595L23.4559 32.7576L23.4129 32.5398C23.2514 31.7215 23.3644 30.872 23.7721 30.1438C24.1708 29.4295 24.9004 28.7213 26.2582 28.7213C28.2256 28.7213 29.0784 29.454 29.4569 30.1425C29.6504 30.4946 29.7275 30.8484 29.7557 31.1159C29.7698 31.2492 29.7716 31.3599 29.77 31.4362C29.7692 31.4744 29.7675 31.5039 29.7661 31.5232C29.7654 31.5329 29.7648 31.54 29.7644 31.5444L29.7639 31.5489M29.3158 22.5609C28.0812 18.4193 25.7334 16.192 23.0604 15.0821C20.3758 13.9672 17.3825 13.9874 14.9021 14.2852C12.363 14.5882 10.2485 16.3567 8.6864 18.3026C7.12183 20.2516 6.08514 22.4109 5.70832 23.5581" fill="#FF931E"/>
<path d="M23.2618 30.0946C22.7464 31.0185 22.6471 32.1081 22.9268 33.1278C23.2508 34.2984 24.1195 35.7819 26.4497 35.7819C30.3038 35.7819 30.0866 31.7253 30.0866 31.7253C30.0866 31.7253 30.4695 28.4601 26.1147 28.4601C24.5649 28.4601 23.7183 29.2774 23.2655 30.0946H23.2618Z" fill="#B6D8D5"/>
<path fill-rule="evenodd" clip-rule="evenodd" d="M23.1586 29.9094C23.649 29.0799 24.5432 28.275 26.1145 28.275C28.3454 28.275 29.4078 29.1168 29.8948 30.003C30.1341 30.4383 30.2273 30.8718 30.2613 31.1948C30.2783 31.3567 30.2805 31.4921 30.2784 31.588C30.2774 31.636 30.2752 31.6741 30.2733 31.7009C30.2724 31.7127 30.2716 31.7223 30.2709 31.7296C30.2712 31.7382 30.2716 31.7503 30.272 31.7658C30.2727 31.7975 30.2731 31.8434 30.2723 31.9012C30.2706 32.0168 30.2638 32.1808 30.2432 32.3773C30.2022 32.7691 30.1058 33.2952 29.8829 33.824C29.6597 34.3535 29.3074 34.8909 28.7522 35.2957C28.1953 35.7017 27.4471 35.9649 26.4495 35.9649C25.2415 35.9649 24.3954 35.5787 23.8095 35.0267C23.2278 34.4787 22.9166 33.7805 22.7493 33.1758L22.7492 33.1754C22.4577 32.1133 22.5601 30.9735 23.1009 30.0038L23.1536 29.9094H23.1586ZM29.9036 31.7028L29.9037 31.7024L29.9042 31.6973C29.9047 31.6925 29.9054 31.6847 29.9061 31.6742C29.9076 31.6532 29.9095 31.6212 29.9104 31.5799C29.9122 31.4972 29.9103 31.3775 29.8952 31.2333C29.8648 30.9441 29.7816 30.5613 29.5722 30.1803C29.162 29.4339 28.2384 28.6431 26.1145 28.6431C24.6462 28.6431 23.8544 29.4102 23.4263 30.1827L23.3738 30.2776H23.3716C22.9261 31.1353 22.8456 32.1355 23.1041 33.0778C23.2607 33.6437 23.5458 34.2725 24.062 34.7588C24.574 35.2412 25.3274 35.5968 26.4495 35.5968C27.3789 35.5968 28.0489 35.3529 28.5353 34.9983C29.0233 34.6425 29.3394 34.1658 29.5437 33.681C29.7482 33.1957 29.8385 32.7077 29.8771 32.3389C29.8964 32.155 29.9027 32.0022 29.9042 31.8959C29.905 31.8428 29.9045 31.8015 29.9039 31.7738C29.9036 31.76 29.9033 31.7496 29.903 31.7429L29.9027 31.7356L29.9027 31.7341L29.9018 31.7184L29.9036 31.7028Z" fill="#B6D8D5"/>
<path d="M26.3874 34.2584C27.5706 34.2584 28.5298 33.3338 28.5298 32.1933C28.5298 31.0528 27.5706 30.1282 26.3874 30.1282C25.2042 30.1282 24.245 31.0528 24.245 32.1933C24.245 33.3338 25.2042 34.2584 26.3874 34.2584Z" fill="#FFF4DE"/>
<path fill-rule="evenodd" clip-rule="evenodd" d="M26.3873 30.3112C25.2993 30.3112 24.4289 31.1597 24.4289 32.1922C24.4289 33.2248 25.2993 34.0733 26.3873 34.0733C27.4753 34.0733 28.3456 33.2248 28.3456 32.1922C28.3456 31.1597 27.4753 30.3112 26.3873 30.3112ZM24.0608 32.1922C24.0608 30.9437 25.1088 29.9431 26.3873 29.9431C27.6657 29.9431 28.7137 30.9437 28.7137 32.1922C28.7137 33.4407 27.6657 34.4414 26.3873 34.4414C25.1088 34.4414 24.0608 33.4407 24.0608 32.1922Z" fill="#FFF4DE"/>
<path d="M6.85495 30.1269C6.33959 31.0509 6.2402 32.1405 6.51996 33.1602C6.8439 34.3308 7.71265 35.8143 10.0428 35.8143C13.8969 35.8143 13.6798 31.7576 13.6798 31.7576C13.6798 31.7576 14.0626 28.4925 9.70782 28.4925C8.15807 28.4925 7.31141 29.3097 6.85863 30.1269H6.85495Z" fill="#B6D8D5"/>
<path fill-rule="evenodd" clip-rule="evenodd" d="M6.75262 29.9436C7.24299 29.1141 8.13721 28.3092 9.70851 28.3092C11.9394 28.3092 13.0018 29.151 13.4888 30.0372C13.7281 30.4725 13.8213 30.906 13.8553 31.229C13.8723 31.3909 13.8745 31.5263 13.8724 31.6222C13.8713 31.6701 13.8692 31.7083 13.8673 31.7351C13.8664 31.7469 13.8656 31.7565 13.8649 31.7637C13.8652 31.7723 13.8656 31.7845 13.866 31.8C13.8667 31.8317 13.8671 31.8775 13.8663 31.9354C13.8646 32.051 13.8578 32.215 13.8372 32.4114C13.7961 32.8033 13.6998 33.3294 13.4769 33.8582C13.2537 34.3877 12.9014 34.9251 12.3462 35.3299C11.7893 35.7359 11.0411 35.9991 10.0435 35.9991C8.83546 35.9991 7.9894 35.6129 7.40353 35.0609C6.82181 34.5128 6.5106 33.8147 6.34327 33.21L6.34316 33.2096C6.05174 32.1475 6.15407 31.0077 6.6949 30.038L6.74755 29.9436H6.75262ZM13.4976 31.737L13.4977 31.7365L13.4982 31.7315C13.4987 31.7267 13.4993 31.7189 13.5001 31.7084C13.5016 31.6873 13.5035 31.6554 13.5044 31.6141C13.5062 31.5314 13.5043 31.4117 13.4892 31.2675C13.4588 30.9783 13.3756 30.5955 13.1662 30.2145C12.756 29.4681 11.8324 28.6773 9.70851 28.6773C8.24016 28.6773 7.44835 29.4443 7.02032 30.2169L6.96776 30.3117H6.96556C6.52013 31.1695 6.4396 32.1697 6.69809 33.112C6.85471 33.6779 7.13984 34.3067 7.65596 34.793C8.16798 35.2754 8.92138 35.631 10.0435 35.631C10.9729 35.631 11.6429 35.3871 12.1293 35.0324C12.6173 34.6766 12.9334 34.1999 13.1377 33.7152C13.3422 33.2299 13.4325 32.7418 13.4711 32.3731C13.4904 32.1892 13.4967 32.0363 13.4982 31.9301C13.499 31.877 13.4985 31.8356 13.4979 31.808C13.4976 31.7942 13.4973 31.7838 13.497 31.7771L13.4967 31.7698L13.4967 31.7683L13.4958 31.7526L13.4976 31.737Z" fill="#B6D8D5"/>
<path d="M9.95809 34.2584C11.1413 34.2584 12.1005 33.3338 12.1005 32.1933C12.1005 31.0528 11.1413 30.1282 9.95809 30.1282C8.77487 30.1282 7.81567 31.0528 7.81567 32.1933C7.81567 33.3338 8.77487 34.2584 9.95809 34.2584Z" fill="#FFF4DE"/>
<path fill-rule="evenodd" clip-rule="evenodd" d="M9.9588 30.3112C8.87079 30.3112 8.00044 31.1597 8.00044 32.1922C8.00044 33.2248 8.87079 34.0733 9.9588 34.0733C11.0468 34.0733 11.9172 33.2248 11.9172 32.1922C11.9172 31.1597 11.0468 30.3112 9.9588 30.3112ZM7.63232 32.1922C7.63232 30.9437 8.68035 29.9431 9.9588 29.9431C11.2372 29.9431 12.2853 30.9437 12.2853 32.1922C12.2853 33.4407 11.2372 34.4414 9.9588 34.4414C8.68035 34.4414 7.63232 33.4407 7.63232 32.1922Z" fill="#FFF4DE"/>
<path d="M32.008 23.679C32.008 23.679 27.5796 24.2643 28.9122 24.96C30.2448 25.6558 31.0583 26.7123 32.3172 26.7012C33.5762 26.6902 34.4228 26.219 34.4228 26.219C34.4228 26.219 34.0768 25.4091 33.3332 24.7318C32.4829 23.9551 32.0043 23.679 32.0043 23.679H32.008Z" fill="#FEDC5D"/>
<path fill-rule="evenodd" clip-rule="evenodd" d="M31.3178 23.4939H32.0088L32.0193 23.6534C32.0971 23.5185 32.0972 23.5185 32.0972 23.5186L32.098 23.5191L32.0996 23.52L32.1049 23.5231C32.1094 23.5258 32.1157 23.5296 32.1238 23.5345C32.14 23.5445 32.1634 23.5592 32.1939 23.5792C32.2549 23.6191 32.3441 23.6798 32.4597 23.7648C32.6911 23.9349 33.0283 24.2022 33.4582 24.5949C33.8457 24.9479 34.1283 25.334 34.3138 25.6308C34.4067 25.7795 34.4758 25.9067 34.522 25.9973C34.5451 26.0426 34.5624 26.0789 34.5742 26.1042C34.5801 26.1169 34.5846 26.1268 34.5877 26.1338L34.5913 26.142L34.5924 26.1444L34.5927 26.1452L34.5929 26.1455C34.5929 26.1456 34.5929 26.1456 34.4237 26.2179C34.5132 26.3788 34.5131 26.3788 34.513 26.3788L34.5126 26.3791L34.5118 26.3795L34.5091 26.381L34.5001 26.3858C34.4925 26.3899 34.4816 26.3955 34.4676 26.4026C34.4397 26.4167 34.3991 26.4363 34.3469 26.4597C34.2425 26.5065 34.0911 26.5682 33.8995 26.6301C33.5167 26.7537 32.9715 26.8785 32.3197 26.8842C31.6341 26.8902 31.0778 26.6037 30.5414 26.248C30.3685 26.1333 30.1993 26.0129 30.0281 25.8911C29.6571 25.6272 29.2766 25.3564 28.8278 25.1221C28.7347 25.0735 28.655 25.0195 28.5953 24.9573C28.5348 24.8942 28.4874 24.8143 28.4799 24.7185C28.4649 24.5261 28.6129 24.3924 28.7321 24.3124C28.9903 24.1393 29.4493 23.9949 29.9169 23.8789C30.3938 23.7606 30.911 23.6648 31.3075 23.5987C31.3595 23.5901 31.4095 23.5819 31.4571 23.5742L31.3178 23.4939ZM31.9653 23.8697C31.9352 23.8739 31.8956 23.8796 31.8478 23.8866C31.7303 23.9038 31.5638 23.9292 31.368 23.9618C30.9758 24.0272 30.4691 24.1212 30.0055 24.2362C29.5326 24.3535 29.1344 24.4859 28.937 24.6182C28.8821 24.655 28.8602 24.6799 28.8518 24.692C28.854 24.6949 28.857 24.6984 28.861 24.7025C28.8829 24.7254 28.9247 24.7575 28.9982 24.7958C29.4697 25.042 29.8859 25.3379 30.2665 25.6085C30.4322 25.7263 30.5911 25.8392 30.7449 25.9412C31.2631 26.2849 31.743 26.5211 32.3164 26.5161C32.9235 26.5108 33.4312 26.3945 33.7864 26.2798C33.9522 26.2262 34.0844 26.1731 34.1774 26.1322C34.1359 26.0525 34.0774 25.9472 34.0016 25.8259C33.8282 25.5484 33.566 25.191 33.2101 24.8668C32.7896 24.4827 32.4622 24.2235 32.2417 24.0614C32.1314 23.9803 32.0478 23.9234 31.9925 23.8873C31.9825 23.8808 31.9735 23.8749 31.9653 23.8697ZM28.8454 24.6823C28.8454 24.6823 28.8455 24.6825 28.8457 24.6829L28.8454 24.6823ZM34.4237 26.2179L34.513 26.3788L34.6581 26.2981L34.5929 26.1455L34.4237 26.2179Z" fill="#FEDC5D"/>
<path d="M5.18427 27.3448C5.18427 27.3448 7.09477 26.4981 7.39662 24.8158C7.69847 23.1336 6.18553 22.6329 6.18553 22.6329C6.18553 22.6329 5.68122 23.8661 5.46771 24.9226C5.26157 25.9459 5.18427 26.8589 5.18427 27.3448Z" fill="#FEDC5D"/>
<path fill-rule="evenodd" clip-rule="evenodd" d="M6.24314 22.4586L6.18532 22.6334L6.01496 22.5637L6.08001 22.4047L6.24314 22.4586ZM5.18406 27.3452L5.25863 27.5135L5 27.6281V27.3452C5 26.8451 5.07894 25.9199 5.28707 24.8867C5.39622 24.3466 5.57876 23.7651 5.73259 23.3217C5.80973 23.0993 5.88014 22.9103 5.93131 22.7767C5.95691 22.7099 5.97771 22.6569 5.99217 22.6205C5.9994 22.6023 6.00504 22.5882 6.0089 22.5787L6.01334 22.5677L6.01496 22.5637C6.01497 22.5637 6.01496 22.5637 6.18532 22.6334C6.24314 22.4586 6.24304 22.4586 6.24314 22.4586L6.24358 22.4588L6.24415 22.459L6.24571 22.4595L6.25045 22.4611C6.25432 22.4625 6.2596 22.4644 6.26617 22.4668C6.27932 22.4717 6.2977 22.4788 6.32047 22.4883C6.36597 22.5072 6.4293 22.5358 6.5037 22.5755C6.652 22.6547 6.84727 22.7797 7.03323 22.9629C7.41101 23.335 7.74063 23.94 7.57758 24.8488C7.4156 25.7515 6.82489 26.4191 6.29364 26.854C6.02638 27.0728 5.76934 27.2368 5.57901 27.3462C5.4837 27.401 5.40475 27.4423 5.3491 27.4702C5.32127 27.4841 5.29924 27.4947 5.28388 27.5019C5.2762 27.5055 5.27018 27.5083 5.26594 27.5102L5.26091 27.5125L5.25942 27.5131L5.25863 27.5135C5.25856 27.5135 5.25863 27.5135 5.18406 27.3452ZM5.37638 27.038C5.38269 27.0345 5.38909 27.0308 5.39557 27.0271C5.57289 26.9252 5.81234 26.7723 6.06044 26.5692C6.55991 26.1603 7.07537 25.5633 7.21525 24.7838C7.35404 24.0103 7.07813 23.5238 6.77489 23.2251C6.62035 23.0729 6.45625 22.9675 6.33031 22.9003C6.3152 22.8922 6.30069 22.8847 6.28685 22.8777C6.28305 22.8876 6.27912 22.8978 6.27506 22.9084C6.22501 23.0391 6.15599 23.2244 6.08037 23.4424C5.92867 23.8796 5.75229 24.443 5.64793 24.9594C5.48191 25.7836 5.40086 26.5331 5.37638 27.038ZM6.12705 22.808C6.12693 22.8079 6.12699 22.8079 6.12705 22.808V22.808Z" fill="#FEDC5D"/>
<path d="M24.1677 23.1649C24.1677 22.1857 23.91 21.4127 23.7039 20.9599C23.1296 19.631 22.0621 18.5635 20.7295 17.9819C20.7222 17.9782 20.7148 17.9708 20.7038 17.9671C18.2374 16.8628 15.5723 17.5917 14.0557 19.4985C14.0557 19.4985 14.0557 19.4985 14.0593 19.4985C13.1943 20.5145 12.6715 21.836 12.6789 23.2864C12.6789 24.0852 12.8482 24.8398 13.1427 25.5282C13.1538 25.5576 13.1648 25.5834 13.1759 25.6128C13.4483 26.2718 13.8017 26.7282 14.0667 27.0006C14.4827 27.4792 14.9759 27.8915 15.5281 28.2117C16.6177 28.9038 17.8325 29.1541 19.143 28.9516C19.997 28.8486 20.7921 28.5577 21.4878 28.1234C22.4486 27.5491 23.1664 26.7356 23.6266 25.6975C23.9836 24.9318 24.1824 24.0741 24.1751 23.1686C24.1751 23.1686 24.1751 23.1686 24.1751 23.1649H24.1677Z" fill="#00A997"/>
<path fill-rule="evenodd" clip-rule="evenodd" d="M20.7737 17.7976C20.7932 17.8054 20.808 17.8143 20.8165 17.8198C22.1846 18.421 23.2808 19.5192 23.8719 20.886C24.073 21.3281 24.3191 22.0585 24.3486 22.9816H24.3589V23.169L24.1749 23.1693C24.2868 23.1693 24.2626 23.1693 24.1849 23.1693L24.1749 23.1693L23.992 23.1693M23.9895 23.3497C23.9909 23.2903 23.9913 23.2306 23.9908 23.1708L24.1749 23.1693V23.3497H23.9895ZM13.3469 25.5459C13.6091 26.1792 13.9479 26.6155 14.1984 26.873L14.202 26.8767L14.2054 26.8806C14.6085 27.3443 15.0862 27.7435 15.6202 28.0532L15.6234 28.0551L15.6266 28.0571C16.6776 28.7246 17.8472 28.9663 19.1147 28.7704L19.1177 28.77L19.1207 28.7696C19.9471 28.6699 20.7166 28.3885 21.3902 27.968L21.3932 27.9661C22.3209 27.4116 23.0132 26.6274 23.4581 25.6236L23.4595 25.6204C23.7818 24.9294 23.971 24.1611 23.9895 23.3497H23.9834V23.1656C23.9834 22.2185 23.734 21.4715 23.5362 21.0369L23.5347 21.0336C22.9791 19.7479 21.9458 18.7144 20.6557 18.1513L20.6513 18.1494L20.647 18.1472C20.6407 18.144 20.6354 18.141 20.6313 18.1385C20.6284 18.1368 20.6259 18.1352 20.6238 18.1338C20.6253 18.1345 20.6268 18.1352 20.6283 18.1358L20.6367 18.1396L20.6453 18.1425C20.6387 18.1402 20.6329 18.1381 20.6283 18.1358C20.6268 18.1351 20.6255 18.1341 20.6242 18.1334C20.6193 18.1308 20.6161 18.1286 20.6157 18.1284C20.6156 18.1283 20.6156 18.1283 20.6167 18.129L20.6217 18.1324C20.6223 18.1328 20.623 18.1333 20.6238 18.1338C18.3691 17.1265 15.9506 17.7004 14.4558 19.3152H14.0558L14.0554 19.4961L13.919 19.3799C13.9172 19.382 13.9153 19.3842 13.9135 19.3863L13.9114 19.3846C15.4795 17.4131 18.2323 16.6623 20.7737 17.7976M14.0554 19.4992L13.9135 19.3863C13.0244 20.4336 12.4872 21.7947 12.4946 23.2876C12.4947 24.1111 12.6691 24.8889 12.9717 25.5975C12.9774 25.6126 12.983 25.6266 12.9879 25.6389L12.9882 25.6396C12.9938 25.6536 12.9986 25.6656 13.0033 25.6782L13.0044 25.681L13.0056 25.6839C13.2867 26.364 13.6521 26.8386 13.9309 27.126C14.3583 27.6167 14.8649 28.0402 15.4323 28.3698C16.5589 29.0843 17.8167 29.3428 19.1678 29.1347C20.0477 29.0281 20.8669 28.7283 21.5836 28.2812C22.5762 27.6875 23.3188 26.8455 23.7939 25.7744C23.7937 25.775 23.7934 25.7755 23.7932 25.776L23.6264 25.6982L23.7946 25.7728C23.7944 25.7733 23.7942 25.7739 23.7939 25.7744M21.5836 28.2812C21.5841 28.2808 21.5846 28.2805 21.5851 28.2802L21.4876 28.1241L21.5821 28.2821C21.5826 28.2818 21.5831 28.2815 21.5836 28.2812ZM19.1678 29.1347C19.1689 29.1345 19.1699 29.1344 19.1709 29.1342L19.1428 28.9523L19.1648 29.1351C19.1658 29.1349 19.1668 29.1348 19.1678 29.1347ZM15.4323 28.3698C15.4334 28.3704 15.4345 28.371 15.4355 28.3716L15.5279 28.2124L15.4292 28.3678C15.4303 28.3685 15.4313 28.3691 15.4323 28.3698ZM13.9309 27.126C13.9322 27.1272 13.9334 27.1285 13.9346 27.1297L14.0665 27.0013L13.9276 27.1221C13.9287 27.1234 13.9298 27.1247 13.9309 27.126ZM12.9717 25.5975C12.9722 25.5988 12.9728 25.6 12.9733 25.6013L13.1425 25.5289L12.9702 25.5935C12.9707 25.5949 12.9712 25.5962 12.9717 25.5975ZM12.4946 23.2876C12.4946 23.2877 12.4946 23.2879 12.4946 23.288L12.6787 23.2871H12.4946C12.4946 23.2872 12.4946 23.2874 12.4946 23.2876ZM14.0554 19.4992V19.6833H14.1442L14.1995 19.6138C14.2815 19.5106 14.367 19.4111 14.4558 19.3152H14.4576L14.1993 19.6185C13.3617 20.6023 12.8556 21.8815 12.8628 23.2861L12.8628 23.2871C12.8628 24.0595 13.0264 24.7896 13.3117 25.4565L13.3134 25.4603L13.3149 25.4643C13.3196 25.4768 13.3244 25.4888 13.33 25.5029L13.3302 25.5035C13.3353 25.5161 13.341 25.5305 13.3469 25.5459C13.3465 25.545 13.3461 25.5441 13.3457 25.5432L13.1757 25.6136L13.348 25.5489C13.3476 25.5479 13.3472 25.5469 13.3469 25.5459" fill="#00A997"/>
<path d="M22.5946 16.3724C22.6167 16.3356 22.5652 16.2988 22.5357 16.3283L16.3882 22.4905H16.3809L14.8863 23.9997H17.6177L14.2458 30.0957C14.2237 30.1325 14.2753 30.1693 14.3047 30.1398L20.4301 23.9997H20.4375L21.932 22.4905H19.2117L22.5946 16.3724Z" fill="#FEDC5D"/>
<path fill-rule="evenodd" clip-rule="evenodd" d="M22.755 16.4641C22.822 16.3482 22.7661 16.2308 22.6938 16.1778C22.6237 16.1264 22.4988 16.106 22.406 16.1988L16.3123 22.3071H16.3045L14.4455 24.1845H17.306L14.0863 30.0053C14.0193 30.1213 14.0751 30.2387 14.1475 30.2917C14.2176 30.3431 14.3425 30.3635 14.4353 30.2707L20.5069 24.1845H20.5147L22.3737 22.3071H19.5242L22.755 16.4641ZM21.9279 17.1992L16.465 22.6752H16.4581L15.328 23.8164H17.9303L14.9138 29.2698L20.3542 23.8164H20.3611L21.4911 22.6752H18.9L21.9279 17.1992Z" fill="#FEDC5D"/>
<path d="M19.0465 20.7457L16.2967 23.5028H18.9397L17.7176 25.7152C17.7176 25.7152 17.7176 25.7225 17.7213 25.7189L20.4637 22.9691H17.8244L19.0539 20.7493C19.0539 20.7493 19.0539 20.742 19.0502 20.7457H19.0465Z" fill="#FF931E"/>
<path fill-rule="evenodd" clip-rule="evenodd" d="M19.2375 20.7504C19.2375 20.7505 19.2375 20.7505 19.0534 20.7505L19.2375 20.7504L19.2374 20.7981L18.1363 22.7862H20.9068L17.8512 25.85C17.841 25.8602 17.7677 25.9314 17.6605 25.8956C17.6121 25.8795 17.5831 25.8482 17.5683 25.8275C17.5537 25.8071 17.5465 25.7882 17.543 25.7778C17.5362 25.7573 17.5344 25.7401 17.5339 25.7341C17.5335 25.7299 17.5333 25.7263 17.5332 25.7235L17.5331 25.7196L17.5331 25.7179L17.5331 25.7171L17.5331 25.7167C17.5331 25.7167 17.5331 25.7164 17.7171 25.7164L17.5331 25.7167L17.5331 25.6689L18.6273 23.6881H15.8527L18.9697 20.5628H19.0278C19.052 20.5596 19.0797 20.5611 19.11 20.5712C19.1584 20.5874 19.1875 20.6187 19.2023 20.6394C19.2169 20.6598 19.2241 20.6787 19.2276 20.6891C19.2344 20.7096 19.2361 20.7268 19.2366 20.7328C19.237 20.737 19.2372 20.7406 19.2373 20.7434L19.2374 20.7473L19.2374 20.749L19.2375 20.7498L19.2375 20.7504ZM18.5021 24.676L20.0198 23.1543H17.5115L18.2693 21.7863L16.7397 23.3199H19.2512L18.5021 24.676Z" fill="#FF931E"/>
<path fill-rule="evenodd" clip-rule="evenodd" d="M6.19914 14.8427C7.1134 11.4293 10.0596 8.47654 14.0701 7.90039L14.1224 8.26476C10.2664 8.81872 7.43317 11.6582 6.55472 14.938C5.67915 18.207 6.74424 21.9184 10.7106 24.2422L10.5245 24.5598C6.41087 22.1497 5.282 18.267 6.19914 14.8427Z" fill="#FF931E"/>
<path d="M20.2878 9.42986C20.516 9.41882 20.6927 9.2274 20.6817 8.99917C20.6706 8.77094 20.4792 8.59424 20.251 8.60529L17.7184 8.71572L17.7552 9.54029L20.2878 9.42986Z" fill="#FEDC5D"/>
<path fill-rule="evenodd" clip-rule="evenodd" d="M20.2424 8.42214C20.5737 8.40637 20.8494 8.66318 20.8653 8.99099C20.8813 9.32254 20.6244 9.59855 20.2965 9.61442L20.2956 9.61446L17.5793 9.7329L17.5261 8.54058L20.2419 8.42216C20.242 8.42215 20.2422 8.42214 20.2424 8.42214ZM20.4976 9.00878C20.4914 8.88029 20.3846 8.7838 20.2597 8.78984L20.2588 8.78988L17.9102 8.89229L17.9306 9.34912L20.2787 9.24673C20.2788 9.24673 20.2789 9.24672 20.2791 9.24671C20.4074 9.24031 20.5037 9.13357 20.4976 9.00878Z" fill="#FEDC5D"/>
<path d="M20.1773 6.85955C20.4055 6.8485 20.5822 6.65709 20.5712 6.42886C20.5601 6.20063 20.3687 6.02393 20.1405 6.03498L17.6078 6.14541L17.6447 6.96998L20.1773 6.85955Z" fill="#FEDC5D"/>
<path fill-rule="evenodd" clip-rule="evenodd" d="M20.1318 5.85182C20.4632 5.83605 20.7389 6.09287 20.7548 6.42067C20.7708 6.75222 20.5139 7.02823 20.1859 7.0441L20.1851 7.04414L17.4688 7.16259L17.4155 5.97027L20.1313 5.85185C20.1315 5.85184 20.1317 5.85183 20.1318 5.85182ZM20.3871 6.43847C20.3809 6.30997 20.274 6.21349 20.1491 6.21953L20.1483 6.21957L17.7997 6.32198L17.8201 6.7788L20.1681 6.67642C20.1683 6.67641 20.1684 6.67641 20.1685 6.6764C20.2968 6.67 20.3931 6.56326 20.3871 6.43847Z" fill="#FEDC5D"/>
<path d="M17.8882 5.18772L18.1164 10.4665C18.1459 11.1659 17.498 11.6996 16.817 11.5377C15.2746 11.1659 13.3678 11.4788 12.7383 9.44678C12.0794 9.35108 11.3689 9.35476 11.3174 8.15103C11.2621 6.92153 12.0021 6.83687 12.661 6.66754C13.169 4.70918 15.0316 4.72758 16.5004 4.23799C17.163 4.01712 17.855 4.49199 17.8882 5.1914V5.18772Z" fill="#FF931E"/>
<path fill-rule="evenodd" clip-rule="evenodd" d="M17.7042 5.20096C17.6768 4.62303 17.105 4.23127 16.5584 4.41345C16.246 4.51757 15.9158 4.59938 15.5926 4.67943C15.527 4.69567 15.4617 4.71185 15.3969 4.72812C15.0084 4.82569 14.6341 4.92765 14.2919 5.07234C13.6184 5.35712 13.0753 5.80359 12.839 6.71459L12.8117 6.81963L12.7066 6.84664C12.6545 6.86003 12.604 6.87244 12.5545 6.88459C12.4388 6.91299 12.3291 6.93991 12.2206 6.97421C12.0691 7.0221 11.9386 7.07927 11.8319 7.15962C11.6338 7.30867 11.4753 7.56984 11.5011 8.14362L11.5011 8.144C11.5252 8.70687 11.6982 8.9384 11.8953 9.05787C12.0026 9.12288 12.1312 9.16362 12.2814 9.19356C12.3869 9.21461 12.4927 9.22867 12.6051 9.24361C12.6567 9.25046 12.7096 9.2575 12.7646 9.26549L12.8795 9.28219L12.9139 9.39317C13.0627 9.87333 13.2833 10.205 13.5472 10.4425C13.8122 10.681 14.1306 10.8332 14.4875 10.9392C14.8463 11.0458 15.2358 11.1035 15.6419 11.1583C15.6813 11.1636 15.7209 11.1689 15.7606 11.1742C16.1254 11.223 16.5018 11.2733 16.8597 11.3595C17.422 11.493 17.9566 11.0522 17.9323 10.475L17.7042 5.20096ZM18.0719 5.18062L18.3001 10.4594C18.3347 11.2809 17.5738 11.9078 16.7742 11.7176L16.7737 11.7174C16.4354 11.6359 16.0783 11.5881 15.7102 11.5389C15.6712 11.5337 15.632 11.5284 15.5927 11.5231C15.1879 11.4685 14.7721 11.4078 14.3827 11.2921C13.9914 11.1758 13.6187 11.002 13.3009 10.7161C13.0047 10.4495 12.7647 10.093 12.599 9.61424C12.5895 9.61296 12.5799 9.61168 12.5702 9.6104C12.4522 9.59469 12.327 9.57802 12.2094 9.55457C12.0393 9.52066 11.8636 9.46914 11.7045 9.37265C11.3687 9.16912 11.1608 8.80067 11.1333 8.15994C11.1039 7.50433 11.2877 7.10847 11.6105 6.86551C11.7642 6.74984 11.9388 6.67725 12.1096 6.62322C12.2303 6.58508 12.3586 6.55358 12.4791 6.52398C12.4901 6.52127 12.5011 6.51858 12.512 6.5159C12.7987 5.53902 13.4224 5.04036 14.1485 4.7333C14.5191 4.5766 14.9176 4.46896 15.3073 4.37109C15.3747 4.35416 15.4418 4.33754 15.5084 4.32102C15.8314 4.24098 16.1447 4.16332 16.442 4.06423C17.2198 3.80497 18.0312 4.36132 18.0719 5.18062Z" fill="#FF931E"/>
</svg>
